<svg xmlns="http://www.w3.org/2000/svg" xmlns:xlink="http://www.w3.org/1999/xlink" version="1.1" width="1000" height="1000" viewBox="0 0 1000 1000" xml:space="preserve">
<desc>Created with Fabric.js 3.5.0</desc>
<defs>
</defs>
<rect x="0" y="0" width="100%" height="100%" fill="rgba(51,51,51,0)"/>
<g transform="matrix(39.5257 0 0 39.5257 500 500)" id="490656">
<g style="" vector-effect="non-scaling-stroke">
		<g transform="matrix(1 0 0 1 -1.6764 -0.4412)">
<path style="stroke: none; stroke-width: 1; stroke-dasharray: none; stroke-linecap: butt; stroke-dashoffset: 0; stroke-linejoin: miter; stroke-miterlimit: 4; is-custom-font: none; font-file-url: none; fill: rgb(255,255,255); fill-rule: nonzero; opacity: 0.9;" transform=" translate(-8.8235, -11.0588)" d="M 5.47059 13.6618 C 5.05637 13.6618 4.72059 13.9976 4.72059 14.4118 C 4.72059 14.826 5.05637 15.1618 5.47059 15.1618 V 13.6618 Z M 7.70588 15.1618 C 8.1201 15.1618 8.45588 14.826 8.45588 14.4118 C 8.45588 13.9976 8.1201 13.6618 7.70588 13.6618 V 15.1618 Z M 5.47059 9.19118 C 5.05637 9.19118 4.72059 9.52696 4.72059 9.94118 C 4.72059 10.3554 5.05637 10.6912 5.47059 10.6912 V 9.19118 Z M 12.1765 10.6912 C 12.5907 10.6912 12.9265 10.3554 12.9265 9.94118 C 12.9265 9.52696 12.5907 9.19118 12.1765 9.19118 V 10.6912 Z M 5.47059 4.72059 C 5.05637 4.72059 4.72059 5.05637 4.72059 5.47059 C 4.72059 5.8848 5.05637 6.22059 5.47059 6.22059 V 4.72059 Z M 12.1765 6.22059 C 12.5907 6.22059 12.9265 5.8848 12.9265 5.47059 C 12.9265 5.05637 12.5907 4.72059 12.1765 4.72059 V 6.22059 Z M 15.8971 9.94118 C 15.8971 10.3554 16.2328 10.6912 16.6471 10.6912 C 17.0613 10.6912 17.3971 10.3554 17.3971 9.94118 H 15.8971 Z M 7.70588 21.8676 C 8.1201 21.8676 8.45588 21.5319 8.45588 21.1176 C 8.45588 20.7034 8.1201 20.3676 7.70588 20.3676 V 21.8676 Z M 2.20488 20.866 L 2.55061 20.2004 H 2.55061 L 2.20488 20.866 Z M 1.25166 19.9128 L 0.586104 20.2585 H 0.586104 L 1.25166 19.9128 Z M 15.4422 1.25166 L 15.0964 1.91722 V 1.91722 L 15.4422 1.25166 Z M 16.3954 2.20488 L 15.7298 2.55061 V 2.55061 L 16.3954 2.20488 Z M 2.20488 1.25166 L 1.85915 0.586104 L 1.85915 0.586104 L 2.20488 1.25166 Z M 1.25166 2.20488 L 0.586104 1.85915 L 0.586104 1.85915 L 1.25166 2.20488 Z M 5.47059 15.1618 H 7.70588 V 13.6618 H 5.47059 V 15.1618 Z M 5.47059 10.6912 H 12.1765 V 9.19118 H 5.47059 V 10.6912 Z M 5.47059 6.22059 H 12.1765 V 4.72059 H 5.47059 V 6.22059 Z M 4.59882 1.75 H 13.0482 V 0.25 H 4.59882 V 1.75 Z M 15.8971 4.59882 V 9.94118 H 17.3971 V 4.59882 H 15.8971 Z M 7.70588 20.3676 H 4.59882 V 21.8676 H 7.70588 V 20.3676 Z M 1.75 17.5188 V 4.59882 H 0.25 V 17.5188 H 1.75 Z M 4.59882 20.3676 C 3.94975 20.3676 3.5088 20.367 3.16823 20.3388 C 2.83665 20.3112 2.66795 20.2614 2.55061 20.2004 L 1.85915 21.5315 C 2.22628 21.7223 2.61807 21.7982 3.04409 21.8336 C 3.46114 21.8682 3.97492 21.8676 4.59882 21.8676 V 20.3676 Z M 0.25 17.5188 C 0.25 18.1427 0.249397 18.6565 0.284031 19.0736 C 0.31941 19.4996 0.395394 19.8914 0.586104 20.2585 L 1.91722 19.567 C 1.85627 19.4497 1.80642 19.281 1.77889 18.9494 C 1.7506 18.6088 1.75 18.1679 1.75 17.5188 H 0.25 Z M 2.55061 20.2004 C 2.27933 20.0595 2.05814 19.8383 1.91722 19.567 L 0.586104 20.2585 C 0.869336 20.8037 1.31391 21.2483 1.85915 21.5315 L 2.55061 20.2004 Z M 13.0482 1.75 C 13.6973 1.75 14.1383 1.7506 14.4788 1.77889 C 14.8104 1.80642 14.9791 1.85627 15.0964 1.91722 L 15.7879 0.586104 C 15.4208 0.395394 15.029 0.31941 14.603 0.284031 C 14.1859 0.249397 13.6721 0.25 13.0482 0.25 V 1.75 Z M 17.3971 4.59882 C 17.3971 3.97492 17.3977 3.46114 17.363 3.04409 C 17.3276 2.61807 17.2517 2.22628 17.061 1.85915 L 15.7298 2.55061 C 15.7908 2.66795 15.8406 2.83665 15.8682 3.16823 C 15.8965 3.5088 15.8971 3.94975 15.8971 4.59882 H 17.3971 Z M 15.0964 1.91722 C 15.3677 2.05814 15.5889 2.27933 15.7298 2.55061 L 17.061 1.85915 C 16.7777 1.31391 16.3332 0.869335 15.7879 0.586104 L 15.0964 1.91722 Z M 4.59882 0.25 C 3.97492 0.25 3.46114 0.249397 3.04409 0.284031 C 2.61807 0.31941 2.22628 0.395394 1.85915 0.586104 L 2.55061 1.91722 C 2.66795 1.85627 2.83665 1.80642 3.16823 1.77889 C 3.5088 1.7506 3.94975 1.75 4.59882 1.75 V 0.25 Z M 1.75 4.59882 C 1.75 3.94975 1.7506 3.5088 1.77889 3.16823 C 1.80642 2.83665 1.85627 2.66795 1.91722 2.55061 L 0.586104 1.85915 C 0.395394 2.22628 0.31941 2.61807 0.284031 3.04409 C 0.249397 3.46114 0.25 3.97492 0.25 4.59882 H 1.75 Z M 1.85915 0.586104 C 1.31391 0.869335 0.869335 1.31391 0.586104 1.85915 L 1.91722 2.55061 C 2.05814 2.27933 2.27933 2.05814 2.55061 1.91722 L 1.85915 0.586104 Z" stroke-linecap="round"/>
</g>
		<g transform="matrix(1 0 0 1 5.0294 6.2647)">
<path style="stroke: none; stroke-width: 1; stroke-dasharray: none; stroke-linecap: butt; stroke-dashoffset: 0; stroke-linejoin: miter; stroke-miterlimit: 4; is-custom-font: none; font-file-url: none; fill: rgb(255,255,255); fill-rule: nonzero; opacity: 0.9;" transform=" translate(-15.5294, -17.7647)" d="M 19.4697 22.7656 C 19.7626 23.0585 20.2374 23.0585 20.5303 22.7656 C 20.8232 22.4727 20.8232 21.9979 20.5303 21.705 L 19.4697 22.7656 Z M 17.6721 16.9758 C 17.6721 18.5949 16.3596 19.9074 14.7405 19.9074 V 21.4074 C 17.188 21.4074 19.1721 19.4233 19.1721 16.9758 H 17.6721 Z M 14.7405 19.9074 C 13.1214 19.9074 11.8088 18.5949 11.8088 16.9758 H 10.3088 C 10.3088 19.4233 12.2929 21.4074 14.7405 21.4074 V 19.9074 Z M 11.8088 16.9758 C 11.8088 15.3567 13.1214 14.0441 14.7405 14.0441 V 12.5441 C 12.2929 12.5441 10.3088 14.5282 10.3088 16.9758 H 11.8088 Z M 14.7405 14.0441 C 16.3596 14.0441 17.6721 15.3567 17.6721 16.9758 H 19.1721 C 19.1721 14.5282 17.188 12.5441 14.7405 12.5441 V 14.0441 Z M 16.8399 20.1359 L 19.4697 22.7656 L 20.5303 21.705 L 17.9006 19.0752 L 16.8399 20.1359 Z" stroke-linecap="round"/>
</g>
</g>
</g>
</svg>