<svg xmlns="http://www.w3.org/2000/svg" xmlns:xlink="http://www.w3.org/1999/xlink" version="1.1" width="1000" height="1000" viewBox="0 0 1000 1000" xml:space="preserve">
<desc>Created with Fabric.js 3.5.0</desc>
<defs>
</defs>
<rect x="0" y="0" width="100%" height="100%" fill="rgba(255,255,255,0)"/>
<g transform="matrix(42.2833 0 0 42.2833 500 500.0001)" id="803632">
<path style="stroke: none; stroke-width: 1; stroke-dasharray: none; stroke-linecap: butt; stroke-dashoffset: 0; stroke-linejoin: miter; stroke-miterlimit: 4; is-custom-font: none; font-file-url: none; fill: rgb(255,255,255); fill-rule: nonzero; opacity: 1;" vector-effect="non-scaling-stroke" transform=" translate(-11, -11)" d="M 3.18404 18.564 L 3.52453 17.8958 L 3.52453 17.8958 L 3.18404 18.564 Z M 1.43597 16.816 L 0.767719 17.1565 L 0.767719 17.1565 L 1.43597 16.816 Z M 16.816 1.43597 L 17.1565 0.767719 L 17.1565 0.767719 L 16.816 1.43597 Z M 18.564 3.18404 L 17.8958 3.52453 L 17.8958 3.52453 L 18.564 3.18404 Z M 3.18404 1.43597 L 3.52453 2.10423 L 3.52453 2.10423 L 3.18404 1.43597 Z M 1.43597 3.18404 L 2.10423 3.52453 L 2.10423 3.52453 L 1.43597 3.18404 Z M 18.25 9 C 18.25 9.41421 18.5858 9.75 19 9.75 C 19.4142 9.75 19.75 9.41421 19.75 9 H 18.25 Z M 9 19.75 C 9.41421 19.75 9.75 19.4142 9.75 19 C 9.75 18.5858 9.41421 18.25 9 18.25 V 19.75 Z M 6 5.25 C 5.58579 5.25 5.25 5.58579 5.25 6 C 5.25 6.41421 5.58579 6.75 6 6.75 V 5.25 Z M 14 6.75 C 14.4142 6.75 14.75 6.41421 14.75 6 C 14.75 5.58579 14.4142 5.25 14 5.25 V 6.75 Z M 6 9.25 C 5.58579 9.25 5.25 9.58579 5.25 10 C 5.25 10.4142 5.58579 10.75 6 10.75 V 9.25 Z M 14 10.75 C 14.4142 10.75 14.75 10.4142 14.75 10 C 14.75 9.58579 14.4142 9.25 14 9.25 V 10.75 Z M 6 13.25 C 5.58579 13.25 5.25 13.5858 5.25 14 C 5.25 14.4142 5.58579 14.75 6 14.75 V 13.25 Z M 10 14.75 C 10.4142 14.75 10.75 14.4142 10.75 14 C 10.75 13.5858 10.4142 13.25 10 13.25 V 14.75 Z M 12.2532 19.4966 L 12.9647 19.7338 L 12.9647 19.7338 L 12.2532 19.4966 Z M 12.716 18.1082 L 12.0045 17.871 L 12.0045 17.871 L 12.716 18.1082 Z M 13.1935 17.3356 L 13.7239 17.8659 L 13.7239 17.8659 L 13.1935 17.3356 Z M 17.8054 12.7237 L 17.2751 12.1934 L 17.2751 12.1934 L 17.8054 12.7237 Z M 20.2763 15.1946 L 20.8066 15.7249 L 20.8066 15.7249 L 20.2763 15.1946 Z M 15.6644 19.8065 L 15.1341 19.2761 L 15.1341 19.2761 L 15.6644 19.8065 Z M 14.8918 20.284 L 15.129 20.9955 L 15.129 20.9955 L 14.8918 20.284 Z M 13.5034 20.7468 L 13.7406 21.4583 L 13.7406 21.4583 L 13.5034 20.7468 Z M 15.4112 20.0429 L 15.8628 20.6416 L 15.8628 20.6416 L 15.4112 20.0429 Z M 15.2165 20.1632 L 14.883 19.4914 L 14.883 19.4914 L 15.2165 20.1632 Z M 20.2763 12.7237 L 19.746 13.254 L 19.746 13.254 L 20.2763 12.7237 Z M 20.8715 13.4106 L 21.5436 13.0776 L 21.5436 13.0776 L 20.8715 13.4106 Z M 20.8715 14.5077 L 21.5436 14.8407 L 21.5436 14.8407 L 20.8715 14.5077 Z M 18.4923 12.1285 L 18.8253 12.8005 L 18.8253 12.8005 L 18.4923 12.1285 Z M 19.5894 12.1285 L 19.2564 12.8005 L 19.2564 12.8005 L 19.5894 12.1285 Z M 12.8368 17.7835 L 13.5086 18.117 L 13.5086 18.117 L 12.8368 17.7835 Z M 12.9571 17.5888 L 12.3584 17.1372 L 12.3584 17.1372 L 12.9571 17.5888 Z M 12.023 20.6026 L 12.7294 20.3507 L 12.7294 20.3507 L 12.023 20.6026 Z M 12.3974 20.977 L 12.1454 21.6834 L 12.1454 21.6834 L 12.3974 20.977 Z M 7.4 1.75 H 12.6 V 0.25 H 7.4 V 1.75 Z M 1.75 12.6 V 7.4 H 0.25 V 12.6 H 1.75 Z M 7.4 18.25 C 6.26752 18.25 5.46326 18.2494 4.83388 18.198 C 4.21325 18.1473 3.829 18.0509 3.52453 17.8958 L 2.84354 19.2323 C 3.39472 19.5131 3.99834 19.6347 4.71173 19.693 C 5.41637 19.7506 6.29227 19.75 7.4 19.75 V 18.25 Z M 0.25 12.6 C 0.25 13.7077 0.249417 14.5836 0.306988 15.2883 C 0.365274 16.0017 0.486882 16.6053 0.767719 17.1565 L 2.10423 16.4755 C 1.94909 16.171 1.85271 15.7867 1.80201 15.1661 C 1.75058 14.5367 1.75 13.7325 1.75 12.6 H 0.25 Z M 3.52453 17.8958 C 2.913 17.5842 2.41582 17.087 2.10423 16.4755 L 0.767719 17.1565 C 1.22312 18.0502 1.94977 18.7769 2.84355 19.2323 L 3.52453 17.8958 Z M 12.6 1.75 C 13.7325 1.75 14.5367 1.75058 15.1661 1.80201 C 15.7867 1.85271 16.171 1.94909 16.4755 2.10423 L 17.1565 0.767719 C 16.6053 0.486882 16.0017 0.365274 15.2883 0.306988 C 14.5836 0.249417 13.7077 0.25 12.6 0.25 V 1.75 Z M 19.75 7.4 C 19.75 6.29227 19.7506 5.41637 19.693 4.71173 C 19.6347 3.99834 19.5131 3.39472 19.2323 2.84354 L 17.8958 3.52453 C 18.0509 3.829 18.1473 4.21325 18.198 4.83388 C 18.2494 5.46326 18.25 6.26752 18.25 7.4 H 19.75 Z M 16.4755 2.10423 C 17.087 2.41582 17.5842 2.913 17.8958 3.52453 L 19.2323 2.84355 C 18.7769 1.94977 18.0502 1.22312 17.1565 0.767719 L 16.4755 2.10423 Z M 7.4 0.25 C 6.29227 0.25 5.41637 0.249417 4.71173 0.306988 C 3.99834 0.365274 3.39472 0.486882 2.84354 0.767719 L 3.52453 2.10423 C 3.829 1.94909 4.21325 1.85271 4.83388 1.80201 C 5.46326 1.75058 6.26752 1.75 7.4 1.75 V 0.25 Z M 1.75 7.4 C 1.75 6.26752 1.75058 5.46326 1.80201 4.83388 C 1.85271 4.21325 1.94909 3.829 2.10423 3.52453 L 0.767719 2.84354 C 0.486882 3.39472 0.365274 3.99834 0.306988 4.71173 C 0.249417 5.41637 0.25 6.29227 0.25 7.4 H 1.75 Z M 2.84355 0.767719 C 1.94978 1.22312 1.22312 1.94978 0.767719 2.84355 L 2.10423 3.52453 C 2.41582 2.913 2.913 2.41582 3.52453 2.10423 L 2.84355 0.767719 Z M 18.25 7.4 V 9 H 19.75 V 7.4 H 18.25 Z M 7.4 19.75 H 9 V 18.25 H 7.4 V 19.75 Z M 6 6.75 H 14 V 5.25 H 6 V 6.75 Z M 6 10.75 H 14 V 9.25 H 6 V 10.75 Z M 6 14.75 H 10 V 13.25 H 6 V 14.75 Z M 12.9647 19.7338 L 13.4275 18.3454 L 12.0045 17.871 L 11.5417 19.2594 L 12.9647 19.7338 Z M 13.7239 17.8659 L 18.3357 13.254 L 17.2751 12.1934 L 12.6632 16.8052 L 13.7239 17.8659 Z M 19.746 14.6643 L 15.1341 19.2761 L 16.1948 20.3368 L 20.8066 15.7249 L 19.746 14.6643 Z M 14.6546 19.5725 L 13.2662 20.0353 L 13.7406 21.4583 L 15.129 20.9955 L 14.6546 19.5725 Z M 15.1341 19.2761 C 14.9969 19.4133 14.9769 19.431 14.9595 19.4441 L 15.8628 20.6416 C 15.9828 20.5511 16.0859 20.4457 16.1948 20.3368 L 15.1341 19.2761 Z M 15.129 20.9955 C 15.2751 20.9468 15.4155 20.9017 15.5501 20.8349 L 14.883 19.4914 C 14.8634 19.5011 14.8387 19.5111 14.6546 19.5725 L 15.129 20.9955 Z M 14.9595 19.4441 C 14.9355 19.4622 14.9099 19.478 14.883 19.4914 L 15.5501 20.8349 C 15.6601 20.7803 15.7648 20.7156 15.8628 20.6416 L 14.9595 19.4441 Z M 19.746 13.254 C 20.1256 13.6337 20.1779 13.7 20.1995 13.7436 L 21.5436 13.0776 C 21.3851 12.7578 21.1006 12.4874 20.8066 12.1934 L 19.746 13.254 Z M 20.8066 15.7249 C 21.1006 15.4309 21.3851 15.1605 21.5436 14.8407 L 20.1995 14.1747 C 20.1779 14.2183 20.1256 14.2846 19.746 14.6643 L 20.8066 15.7249 Z M 20.1995 13.7436 C 20.2668 13.8794 20.2668 14.0389 20.1995 14.1747 L 21.5436 14.8407 C 21.8188 14.2853 21.8188 13.6331 21.5436 13.0776 L 20.1995 13.7436 Z M 18.3357 13.254 C 18.7153 12.8744 18.7817 12.8221 18.8253 12.8005 L 18.1593 11.4564 C 17.8395 11.6149 17.569 11.8994 17.2751 12.1934 L 18.3357 13.254 Z M 20.8066 12.1934 C 20.5126 11.8994 20.2422 11.6149 19.9224 11.4564 L 19.2564 12.8005 C 19.3 12.8221 19.3663 12.8744 19.746 13.254 L 20.8066 12.1934 Z M 18.8253 12.8005 C 18.9611 12.7332 19.1206 12.7332 19.2564 12.8005 L 19.9224 11.4564 C 19.3669 11.1812 18.7147 11.1812 18.1593 11.4564 L 18.8253 12.8005 Z M 13.4275 18.3454 C 13.4889 18.1613 13.4989 18.1366 13.5086 18.117 L 12.1651 17.4499 C 12.0983 17.5845 12.0532 17.7249 12.0045 17.871 L 13.4275 18.3454 Z M 12.6632 16.8052 C 12.5543 16.9141 12.4489 17.0172 12.3584 17.1372 L 13.5559 18.0405 C 13.569 18.0231 13.5867 18.0031 13.7239 17.8659 L 12.6632 16.8052 Z M 13.5086 18.117 C 13.522 18.0901 13.5378 18.0645 13.5559 18.0405 L 12.3584 17.1372 C 12.2844 17.2352 12.2197 17.3399 12.1651 17.4499 L 13.5086 18.117 Z M 11.5417 19.2594 C 11.4458 19.547 11.3568 19.8119 11.3057 20.0291 C 11.2573 20.2352 11.2047 20.5409 11.3166 20.8546 L 12.7294 20.3507 C 12.7697 20.4637 12.7317 20.5181 12.7659 20.3723 C 12.7976 20.2375 12.8594 20.0497 12.9647 19.7338 L 11.5417 19.2594 Z M 13.2662 20.0353 C 12.9503 20.1406 12.7625 20.2024 12.6277 20.2341 C 12.4819 20.2683 12.5363 20.2303 12.6493 20.2706 L 12.1454 21.6834 C 12.4591 21.7953 12.7648 21.7427 12.9709 21.6943 C 13.1881 21.6432 13.453 21.5542 13.7406 21.4583 L 13.2662 20.0353 Z M 11.3166 20.8546 C 11.4545 21.2412 11.7588 21.5455 12.1454 21.6834 L 12.6493 20.2706 C 12.6867 20.2839 12.7161 20.3133 12.7294 20.3507 L 11.3166 20.8546 Z" stroke-linecap="round"/>
</g>
</svg>