<svg width="22" height="22" viewBox="0 0 22 22" fill="none" xmlns="http://www.w3.org/2000/svg">
<circle cx="11" cy="11" r="10" stroke="white" stroke-width="1.5"/>
<path d="M6.49 11.1C6.49 10.1387 6.70467 9.28 7.134 8.524C7.57267 7.75867 8.16533 7.166 8.912 6.746C9.668 6.31667 10.5127 6.102 11.446 6.102C12.538 6.102 13.4947 6.382 14.316 6.942C15.1373 7.502 15.7113 8.27667 16.038 9.266H13.784C13.56 8.79933 13.2427 8.44933 12.832 8.216C12.4307 7.98267 11.964 7.866 11.432 7.866C10.8627 7.866 10.354 8.00133 9.906 8.272C9.46733 8.53333 9.122 8.90667 8.87 9.392C8.62733 9.87733 8.506 10.4467 8.506 11.1C8.506 11.744 8.62733 12.3133 8.87 12.808C9.122 13.2933 9.46733 13.6713 9.906 13.942C10.354 14.2033 10.8627 14.334 11.432 14.334C11.964 14.334 12.4307 14.2173 12.832 13.984C13.2427 13.7413 13.56 13.3867 13.784 12.92H16.038C15.7113 13.9187 15.1373 14.698 14.316 15.258C13.504 15.8087 12.5473 16.084 11.446 16.084C10.5127 16.084 9.668 15.874 8.912 15.454C8.16533 15.0247 7.57267 14.432 7.134 13.676C6.70467 12.92 6.49 12.0613 6.49 11.1Z" fill="white"/>
</svg>
