<svg width="33" height="27" viewBox="0 0 33 27" fill="none" xmlns="http://www.w3.org/2000/svg">
<path d="M7.25 21.3126C9.40736 21.3126 11.1562 19.5637 11.1562 17.4063C11.1562 15.2489 9.40736 13.5001 7.25 13.5001C5.09264 13.5001 3.34375 15.2489 3.34375 17.4063C3.34375 19.5637 5.09264 21.3126 7.25 21.3126ZM7.25 21.3126C3.79822 21.3126 1 23.4112 1 26.0001M7.25 21.3126C10.7018 21.3126 13.5 23.4112 13.5 26.0001" stroke="#2D2D2D" stroke-width="1.5" stroke-linecap="round"/>
<path d="M26 21.3126C28.1574 21.3126 29.9062 19.5637 29.9062 17.4063C29.9062 15.2489 28.1574 13.5001 26 13.5001C23.8426 13.5001 22.0938 15.2489 22.0938 17.4063C22.0938 19.5637 23.8426 21.3126 26 21.3126ZM26 21.3126C22.5482 21.3126 19.75 23.4112 19.75 26.0001M26 21.3126C29.4518 21.3126 32.25 23.4112 32.25 26.0001" stroke="#2D2D2D" stroke-width="1.5" stroke-linecap="round"/>
<path d="M16.625 8.8125C18.7824 8.8125 20.5312 7.06361 20.5312 4.90625C20.5312 2.74889 18.7824 1 16.625 1C14.4676 1 12.7188 2.74889 12.7188 4.90625C12.7188 7.06361 14.4676 8.8125 16.625 8.8125ZM16.625 8.8125C13.1732 8.8125 10.375 10.9112 10.375 13.5M16.625 8.8125C20.0768 8.8125 22.875 10.9112 22.875 13.5" stroke="#2D2D2D" stroke-width="1.5" stroke-linecap="round"/>
</svg>
