<svg xmlns="http://www.w3.org/2000/svg" xmlns:xlink="http://www.w3.org/1999/xlink" version="1.1" width="1000" height="1000" viewBox="0 0 1000 1000" xml:space="preserve">
<desc>Created with Fabric.js 3.5.0</desc>
<defs>
</defs>
<rect x="0" y="0" width="100%" height="100%" fill="rgba(207,165,149,0)"/>
<g transform="matrix(42.2833 0 0 42.2833 500.0001 500)" id="617587">
<path style="stroke: none; stroke-width: 1; stroke-dasharray: none; stroke-linecap: butt; stroke-dashoffset: 0; stroke-linejoin: miter; stroke-miterlimit: 4; is-custom-font: none; font-file-url: none; fill: rgb(255,255,255); fill-rule: nonzero; opacity: 0.9;" vector-effect="non-scaling-stroke" transform=" translate(-10, -11)" d="M 14.908 1.21799 L 14.5675 1.88624 L 14.908 1.21799 Z M 15.782 2.09202 L 15.1138 2.43251 L 15.782 2.09202 Z M 5.09202 1.21799 L 5.43251 1.88624 L 5.09202 1.21799 Z M 4.21799 2.09202 L 4.88624 2.43251 L 4.21799 2.09202 Z M 16 6.25 C 15.5858 6.25 15.25 6.58579 15.25 7 C 15.25 7.41421 15.5858 7.75 16 7.75 V 6.25 Z M 4 7.75 C 4.41421 7.75 4.75 7.41421 4.75 7 C 4.75 6.58579 4.41421 6.25 4 6.25 V 7.75 Z M 8 4.25 C 7.58579 4.25 7.25 4.58579 7.25 5 C 7.25 5.41421 7.58579 5.75 8 5.75 V 4.25 Z M 12 5.75 C 12.4142 5.75 12.75 5.41421 12.75 5 C 12.75 4.58579 12.4142 4.25 12 4.25 V 5.75 Z M 8 8.25 C 7.58579 8.25 7.25 8.58579 7.25 9 C 7.25 9.41421 7.58579 9.75 8 9.75 V 8.25 Z M 12 9.75 C 12.4142 9.75 12.75 9.41421 12.75 9 C 12.75 8.58579 12.4142 8.25 12 8.25 V 9.75 Z M 8 12.25 C 7.58579 12.25 7.25 12.5858 7.25 13 C 7.25 13.4142 7.58579 13.75 8 13.75 V 12.25 Z M 12 13.75 C 12.4142 13.75 12.75 13.4142 12.75 13 C 12.75 12.5858 12.4142 12.25 12 12.25 V 13.75 Z M 7.2 1.75 H 12.8 V 0.25 H 7.2 V 1.75 Z M 15.25 4.2 V 17 H 16.75 V 4.2 H 15.25 Z M 16 16.25 H 4 V 17.75 H 16 V 16.25 Z M 4.75 17 V 4.2 H 3.25 V 17 H 4.75 Z M 16 17.75 H 19 V 16.25 H 16 V 17.75 Z M 4 16.25 H 1 V 17.75 H 4 V 16.25 Z M 12.8 1.75 C 13.3724 1.75 13.7566 1.75058 14.0525 1.77476 C 14.3396 1.79822 14.4769 1.8401 14.5675 1.88624 L 15.2485 0.549732 C 14.9112 0.377888 14.5546 0.310777 14.1747 0.279739 C 13.8035 0.249417 13.3477 0.25 12.8 0.25 V 1.75 Z M 16.75 4.2 C 16.75 3.65232 16.7506 3.19646 16.7203 2.82533 C 16.6892 2.44545 16.6221 2.08879 16.4503 1.75153 L 15.1138 2.43251 C 15.1599 2.52307 15.2018 2.66035 15.2252 2.94748 C 15.2494 3.24336 15.25 3.62757 15.25 4.2 H 16.75 Z M 14.5675 1.88624 C 14.8027 2.00608 14.9939 2.19731 15.1138 2.43251 L 16.4503 1.75153 C 16.1866 1.23408 15.7659 0.813384 15.2485 0.549732 L 14.5675 1.88624 Z M 7.2 0.25 C 6.65232 0.25 6.19646 0.249417 5.82533 0.279739 C 5.44545 0.310777 5.08879 0.377888 4.75153 0.549732 L 5.43251 1.88624 C 5.52307 1.8401 5.66035 1.79822 5.94748 1.77476 C 6.24336 1.75058 6.62757 1.75 7.2 1.75 V 0.25 Z M 4.75 4.2 C 4.75 3.62757 4.75058 3.24336 4.77476 2.94748 C 4.79822 2.66035 4.8401 2.52307 4.88624 2.43251 L 3.54973 1.75153 C 3.37789 2.08879 3.31078 2.44545 3.27974 2.82533 C 3.24942 3.19646 3.25 3.65232 3.25 4.2 H 4.75 Z M 4.75153 0.549732 C 4.23408 0.813384 3.81338 1.23408 3.54973 1.75153 L 4.88624 2.43251 C 5.00608 2.19731 5.19731 2.00608 5.43251 1.88624 L 4.75153 0.549732 Z M 16 7.75 H 17 V 6.25 H 16 V 7.75 Z M 18.25 9 V 19 H 19.75 V 9 H 18.25 Z M 17 20.25 H 3 V 21.75 H 17 V 20.25 Z M 1.75 19 V 9 H 0.25 V 19 H 1.75 Z M 3 7.75 H 4 V 6.25 H 3 V 7.75 Z M 1.75 9 C 1.75 8.30964 2.30964 7.75 3 7.75 V 6.25 C 1.48122 6.25 0.25 7.48122 0.25 9 H 1.75 Z M 3 20.25 C 2.30964 20.25 1.75 19.6904 1.75 19 H 0.25 C 0.25 20.5188 1.48122 21.75 3 21.75 V 20.25 Z M 18.25 19 C 18.25 19.6904 17.6904 20.25 17 20.25 V 21.75 C 18.5188 21.75 19.75 20.5188 19.75 19 H 18.25 Z M 17 7.75 C 17.6904 7.75 18.25 8.30964 18.25 9 H 19.75 C 19.75 7.48122 18.5188 6.25 17 6.25 V 7.75 Z M 8 5.75 H 12 V 4.25 H 8 V 5.75 Z M 8 9.75 H 12 V 8.25 H 8 V 9.75 Z M 8 13.75 H 12 V 12.25 H 8 V 13.75 Z" stroke-linecap="round"/>
</g>
</svg>