<svg width="20" height="22" viewBox="0 0 20 22" fill="none" xmlns="http://www.w3.org/2000/svg">
<path opacity="0.9" d="M14.908 1.21799L14.5675 1.88624L14.908 1.21799ZM15.782 2.09202L15.1138 2.43251L15.782 2.09202ZM5.09202 1.21799L5.43251 1.88624L5.09202 1.21799ZM4.21799 2.09202L4.88624 2.43251L4.21799 2.09202ZM16 6.25C15.5858 6.25 15.25 6.58579 15.25 7C15.25 7.41421 15.5858 7.75 16 7.75V6.25ZM4 7.75C4.41421 7.75 4.75 7.41421 4.75 7C4.75 6.58579 4.41421 6.25 4 6.25V7.75ZM8 4.25C7.58579 4.25 7.25 4.58579 7.25 5C7.25 5.41421 7.58579 5.75 8 5.75V4.25ZM12 5.75C12.4142 5.75 12.75 5.41421 12.75 5C12.75 4.58579 12.4142 4.25 12 4.25V5.75ZM8 8.25C7.58579 8.25 7.25 8.58579 7.25 9C7.25 9.41421 7.58579 9.75 8 9.75V8.25ZM12 9.75C12.4142 9.75 12.75 9.41421 12.75 9C12.75 8.58579 12.4142 8.25 12 8.25V9.75ZM8 12.25C7.58579 12.25 7.25 12.5858 7.25 13C7.25 13.4142 7.58579 13.75 8 13.75V12.25ZM12 13.75C12.4142 13.75 12.75 13.4142 12.75 13C12.75 12.5858 12.4142 12.25 12 12.25V13.75ZM7.2 1.75H12.8V0.25H7.2V1.75ZM15.25 4.2V17H16.75V4.2H15.25ZM16 16.25H4V17.75H16V16.25ZM4.75 17V4.2H3.25V17H4.75ZM16 17.75H19V16.25H16V17.75ZM4 16.25H1V17.75H4V16.25ZM12.8 1.75C13.3724 1.75 13.7566 1.75058 14.0525 1.77476C14.3396 1.79822 14.4769 1.8401 14.5675 1.88624L15.2485 0.549732C14.9112 0.377888 14.5546 0.310777 14.1747 0.279739C13.8035 0.249417 13.3477 0.25 12.8 0.25V1.75ZM16.75 4.2C16.75 3.65232 16.7506 3.19646 16.7203 2.82533C16.6892 2.44545 16.6221 2.08879 16.4503 1.75153L15.1138 2.43251C15.1599 2.52307 15.2018 2.66035 15.2252 2.94748C15.2494 3.24336 15.25 3.62757 15.25 4.2H16.75ZM14.5675 1.88624C14.8027 2.00608 14.9939 2.19731 15.1138 2.43251L16.4503 1.75153C16.1866 1.23408 15.7659 0.813384 15.2485 0.549732L14.5675 1.88624ZM7.2 0.25C6.65232 0.25 6.19646 0.249417 5.82533 0.279739C5.44545 0.310777 5.08879 0.377888 4.75153 0.549732L5.43251 1.88624C5.52307 1.8401 5.66035 1.79822 5.94748 1.77476C6.24336 1.75058 6.62757 1.75 7.2 1.75V0.25ZM4.75 4.2C4.75 3.62757 4.75058 3.24336 4.77476 2.94748C4.79822 2.66035 4.8401 2.52307 4.88624 2.43251L3.54973 1.75153C3.37789 2.08879 3.31078 2.44545 3.27974 2.82533C3.24942 3.19646 3.25 3.65232 3.25 4.2H4.75ZM4.75153 0.549732C4.23408 0.813384 3.81338 1.23408 3.54973 1.75153L4.88624 2.43251C5.00608 2.19731 5.19731 2.00608 5.43251 1.88624L4.75153 0.549732ZM16 7.75H17V6.25H16V7.75ZM18.25 9V19H19.75V9H18.25ZM17 20.25H3V21.75H17V20.25ZM1.75 19V9H0.25V19H1.75ZM3 7.75H4V6.25H3V7.75ZM1.75 9C1.75 8.30964 2.30964 7.75 3 7.75V6.25C1.48122 6.25 0.25 7.48122 0.25 9H1.75ZM3 20.25C2.30964 20.25 1.75 19.6904 1.75 19H0.25C0.25 20.5188 1.48122 21.75 3 21.75V20.25ZM18.25 19C18.25 19.6904 17.6904 20.25 17 20.25V21.75C18.5188 21.75 19.75 20.5188 19.75 19H18.25ZM17 7.75C17.6904 7.75 18.25 8.30964 18.25 9H19.75C19.75 7.48122 18.5188 6.25 17 6.25V7.75ZM8 5.75H12V4.25H8V5.75ZM8 9.75H12V8.25H8V9.75ZM8 13.75H12V12.25H8V13.75Z" fill="black"/>
</svg>
