<svg width="22" height="18" viewBox="0 0 22 18" fill="none" xmlns="http://www.w3.org/2000/svg">
<path opacity="0.9" d="M10.3536 6.35355L10.8839 5.82322L10.3536 6.35355ZM13.6464 9.64645L13.1161 10.1768L13.6464 9.64645ZM14.3536 9.64645L14.8839 10.1768L14.8839 10.1768L14.3536 9.64645ZM20.5303 4.53033C20.8232 4.23744 20.8232 3.76256 20.5303 3.46967C20.2374 3.17678 19.7626 3.17678 19.4697 3.46967L20.5303 4.53033ZM4.46967 10.4697C4.17678 10.7626 4.17678 11.2374 4.46967 11.5303C4.76256 11.8232 5.23744 11.8232 5.53033 11.5303L4.46967 10.4697ZM9.64645 6.35355L10.1768 6.88388L10.1768 6.88388L9.64645 6.35355ZM16 2.25C15.5858 2.25 15.25 2.58579 15.25 3C15.25 3.41421 15.5858 3.75 16 3.75V2.25ZM20.25 8C20.25 8.41421 20.5858 8.75 21 8.75C21.4142 8.75 21.75 8.41421 21.75 8H20.25ZM21 17.75C21.4142 17.75 21.75 17.4142 21.75 17C21.75 16.5858 21.4142 16.25 21 16.25V17.75ZM1.75 1C1.75 0.585786 1.41421 0.25 1 0.25C0.585786 0.25 0.25 0.585786 0.25 1H1.75ZM3.18404 16.564L3.52453 15.8958L3.18404 16.564ZM1.43597 14.816L0.767719 15.1565L1.43597 14.816ZM9.82322 6.88388L13.1161 10.1768L14.1768 9.11612L10.8839 5.82322L9.82322 6.88388ZM14.8839 10.1768L20.5303 4.53033L19.4697 3.46967L13.8232 9.11612L14.8839 10.1768ZM5.53033 11.5303L10.1768 6.88388L9.11612 5.82322L4.46967 10.4697L5.53033 11.5303ZM13.1161 10.1768C13.6043 10.6649 14.3957 10.6649 14.8839 10.1768L13.8232 9.11611C13.9209 9.01849 14.0791 9.01848 14.1768 9.11612L13.1161 10.1768ZM10.8839 5.82322C10.3957 5.33507 9.60427 5.33507 9.11612 5.82322L10.1768 6.88388C10.0791 6.98152 9.92085 6.98151 9.82322 6.88388L10.8839 5.82322ZM16 3.75H20.5V2.25H16V3.75ZM20.25 3.5V8H21.75V3.5H20.25ZM20.5 3.75C20.3619 3.75 20.25 3.63807 20.25 3.5H21.75C21.75 2.80964 21.1904 2.25 20.5 2.25V3.75ZM21 16.25H7.4V17.75H21V16.25ZM1.75 10.6V1H0.25V10.6H1.75ZM7.4 16.25C6.26752 16.25 5.46326 16.2494 4.83388 16.198C4.21325 16.1473 3.829 16.0509 3.52453 15.8958L2.84354 17.2323C3.39472 17.5131 3.99834 17.6347 4.71173 17.693C5.41637 17.7506 6.29227 17.75 7.4 17.75V16.25ZM0.25 10.6C0.25 11.7077 0.249417 12.5836 0.306988 13.2883C0.365274 14.0017 0.486882 14.6053 0.767719 15.1565L2.10423 14.4755C1.94909 14.171 1.85271 13.7867 1.80201 13.1661C1.75058 12.5367 1.75 11.7325 1.75 10.6H0.25ZM3.52453 15.8958C2.913 15.5842 2.41582 15.087 2.10423 14.4755L0.767719 15.1565C1.22312 16.0502 1.94978 16.7769 2.84355 17.2323L3.52453 15.8958Z" fill="black"/>
</svg>
