<svg width="321" height="283" viewBox="0 0 321 283" fill="none" xmlns="http://www.w3.org/2000/svg">
<path d="M71.3419 176.317C84.8019 253.407 182.962 281.877 180.672 281.877C108.822 287.237 47.4719 256.647 18.6919 212.757C-10.0881 168.897 -9.64808 109.487 48.6219 63.5671C106.892 17.6471 181.942 27.3571 181.942 27.3571C127.672 41.1671 57.7619 98.4171 71.3419 176.327V176.317ZM259.672 45.1771C263.322 47.5271 265.762 46.2571 265.762 46.2571C265.762 46.2571 266.552 41.9771 264.652 39.6871C262.782 37.3971 257.762 37.0171 257.762 37.0171C257.762 37.0171 256.052 42.8271 259.662 45.1771H259.672ZM278.582 132.957C287.532 140.067 310.952 158.027 318.192 185.317C322.922 201.947 320.732 226.127 307.972 243.807C297.622 257.387 273.662 273.387 260.622 277.667C250.022 281.727 239.362 282.747 239.362 282.747C239.362 282.747 245.902 278.877 252.592 272.017C257.952 266.527 263.442 258.907 265.732 251.707C270.902 235.487 268.272 220.417 255.292 203.947C242.412 187.607 221.522 175.127 210.542 159.067C199.502 142.947 183.562 108.637 200.832 60.2071C209.022 32.3471 233.072 15.0171 250.592 17.0171C257.482 17.5871 261.322 19.9971 261.322 19.9971L270.462 6.4771C270.462 6.4771 267.572 5.0171 269.162 2.0071C270.082 0.2271 272.592 -0.122901 274.082 0.927099C275.732 2.0671 275.602 5.2071 274.022 6.1971C272.812 6.9571 271.422 6.8271 271.422 6.8271L262.472 20.6371L264.792 22.1271L278.822 7.6271C278.822 7.6271 275.392 5.4671 277.552 1.6971C278.762 -0.392901 282.562 -0.7429 284.092 1.7271C285.522 4.0771 284.982 8.1371 280.312 8.0771L266.162 23.0271L268.512 25.0271L288.192 9.5671C288.192 9.5671 286.132 6.7471 288.162 4.0171C288.992 2.9371 290.512 2.3671 291.942 2.3671C294.192 2.3671 296.032 4.5271 296.132 6.3071C296.262 8.8771 294.102 12.8471 289.052 10.3971C270.482 25.7271 269.912 26.1971 269.882 26.2371L272.512 29.2471L294.062 17.6671C294.062 17.6671 293.522 16.1771 293.812 14.5871C294.062 13.0971 294.892 11.4471 297.302 10.5571C299.902 9.6071 302.312 10.7171 303.462 12.4271C304.222 13.5671 304.482 15.0971 304.382 16.4571C304.132 19.9171 299.052 22.6471 295.652 19.6971C274.322 30.3271 273.662 30.6771 273.622 30.6771C273.622 30.6771 276.542 35.4971 276.922 36.4571C295.552 29.8871 296.122 29.6671 296.152 29.6671C296.152 29.6671 295.992 23.6671 302.182 23.0671C305.422 22.7471 307.322 24.4671 308.312 26.2071C309.232 27.7971 309.172 29.7971 308.822 31.3771C308.342 33.5371 305.652 35.8471 302.602 35.8871C300.542 35.8871 298.222 34.8071 296.732 31.9871C278.392 38.5571 277.822 38.7771 277.782 38.7771C277.782 38.7771 280.512 45.6671 280.642 50.8971C280.802 55.1471 280.452 57.0871 280.452 57.0871C280.452 57.0871 287.562 63.8771 288.102 71.6271L287.912 76.7371C287.912 76.7371 278.802 65.8871 271.792 63.3171C271.662 64.6471 262.082 62.4271 257.732 58.5871C252.272 53.7671 248.622 50.0471 244.852 50.2371C241.072 50.4271 234.222 54.3271 231.462 64.2371C228.702 74.1471 229.372 86.5471 238.092 97.8771C246.852 109.177 269.672 125.867 278.622 132.977L278.582 132.957Z" fill="url(#paint0_linear_7513_10119)"/>
<defs>
<linearGradient id="paint0_linear_7513_10119" x1="158.822" y1="8.8271" x2="161.192" y2="291.217" gradientUnits="userSpaceOnUse">
<stop stop-color="#0E8FBC"/>
<stop offset="0.06" stop-color="#0C94B8"/>
<stop offset="0.31" stop-color="#05A5AD"/>
<stop offset="0.58" stop-color="#01AFA6"/>
<stop offset="0.91" stop-color="#00B3A4"/>
</linearGradient>
</defs>
</svg>
