<svg width="74" height="75" viewBox="0 0 74 75" fill="none" xmlns="http://www.w3.org/2000/svg">
<path d="M37 72.6055C17.67 72.6055 2 56.9354 2 37.6055C2 18.2755 17.67 2.60545 37 2.60545C56.33 2.60545 72 18.2755 72 37.6055" stroke="white" stroke-width="3.37777"/>
<path d="M48.668 36.6939C49.6007 36.6939 50.3569 37.4501 50.3569 38.3828C50.3569 39.3156 49.6007 40.0717 48.668 40.0717V36.6939ZM25.696 39.577C25.0364 38.9175 25.0364 37.8481 25.696 37.1886L36.444 26.4406C37.1035 25.781 38.1729 25.781 38.8324 26.4406C39.492 27.1001 39.492 28.1695 38.8324 28.829L29.2786 38.3828L38.8324 47.9366C39.492 48.5961 39.492 49.6655 38.8324 50.325C38.1729 50.9846 37.1035 50.9846 36.444 50.325L25.696 39.577ZM48.668 40.0717L26.8902 40.0717V36.6939L48.668 36.6939V40.0717Z" fill="white"/>
</svg>
