<svg width="824" height="639" viewBox="0 0 824 639" fill="none" xmlns="http://www.w3.org/2000/svg">
<path d="M678.855 348.595C676.961 348.879 675.02 349.273 673.015 349.778C664.461 351.956 655.828 356.044 647.684 361.442L657.485 371.527C665.629 366.13 674.262 362.042 682.816 359.864C684.821 359.359 686.778 358.948 688.656 358.68L678.855 348.595Z" fill="#9CF5FE"/>
<path style="mix-blend-mode:lighten" opacity="0.2" d="M471.565 318.217C520.307 269.475 520.307 190.449 471.565 141.707C422.823 92.9655 343.797 92.9655 295.056 141.707C246.314 190.449 246.314 269.475 295.056 318.217C343.797 366.958 422.823 366.958 471.565 318.217Z" fill="url(#paint0_radial_7729_4480)"/>
<path style="mix-blend-mode:lighten" opacity="0.2" d="M389.067 638.227C502.994 638.227 595.35 584.906 595.35 519.13C595.35 453.354 502.994 400.032 389.067 400.032C275.141 400.032 182.785 453.354 182.785 519.13C182.785 584.906 275.141 638.227 389.067 638.227Z" fill="url(#paint1_radial_7729_4480)"/>
<path d="M385.989 542.347C384.774 542.316 383.574 542.284 382.375 542.221L382.549 538.654C383.716 538.701 384.9 538.749 386.084 538.78L386.005 542.363L385.989 542.347ZM393.234 542.331L393.139 538.749C394.323 538.717 395.491 538.67 396.674 538.607L396.864 542.174C395.664 542.237 394.449 542.284 393.249 542.316L393.234 542.331ZM375.146 541.732C373.947 541.621 372.747 541.479 371.548 541.337L371.974 537.786C373.142 537.928 374.31 538.054 375.478 538.165L375.131 541.732H375.146ZM404.076 541.621L403.713 538.07C404.881 537.944 406.049 537.818 407.217 537.66L407.675 541.211C406.475 541.369 405.276 541.511 404.076 541.637V541.621ZM364.367 540.264C363.167 540.059 361.983 539.822 360.8 539.585L361.526 536.081C362.678 536.318 363.83 536.539 364.998 536.744L364.383 540.264H364.367ZM414.825 540.074L414.177 536.555C415.33 536.35 416.482 536.113 417.634 535.876L418.376 539.38C417.192 539.633 416.008 539.869 414.825 540.09V540.074ZM353.729 537.928C352.545 537.612 351.393 537.281 350.225 536.949L351.251 533.525C352.372 533.856 353.508 534.172 354.644 534.472L353.729 537.928ZM425.446 537.66L424.499 534.203C425.636 533.888 426.756 533.556 427.877 533.225L428.934 536.65C427.782 537.013 426.614 537.344 425.446 537.66ZM343.344 534.645C342.208 534.219 341.071 533.777 339.951 533.319L341.308 530.005C342.381 530.447 343.47 530.873 344.575 531.283L343.328 534.629L343.344 534.645ZM435.8 534.266L434.522 530.92C435.626 530.494 436.7 530.068 437.773 529.61L439.178 532.909C438.073 533.383 436.936 533.84 435.8 534.266ZM333.322 530.289C332.233 529.737 331.16 529.168 330.102 528.569L331.854 525.444C332.864 526.012 333.89 526.564 334.947 527.085L333.338 530.273L333.322 530.289ZM445.775 529.784L444.118 526.612C445.159 526.059 446.185 525.507 447.195 524.923C447.921 524.497 448.647 524.071 449.342 523.629L451.236 526.675C450.51 527.133 449.752 527.574 448.979 528.016C447.937 528.616 446.864 529.2 445.775 529.768V529.784ZM323.884 524.702C322.858 523.992 321.863 523.266 320.916 522.524L323.11 519.699C324.01 520.393 324.941 521.088 325.92 521.751L323.884 524.686V524.702ZM457.265 522.492L455.071 519.667C455.986 518.941 456.886 518.199 457.738 517.458L460.106 520.141C459.206 520.93 458.243 521.719 457.265 522.492ZM315.377 517.647C314.493 516.747 313.641 515.832 312.867 514.917L315.582 512.596C316.308 513.449 317.097 514.301 317.918 515.122L315.377 517.647ZM465.314 514.885L462.599 512.565C463.357 511.681 464.067 510.766 464.714 509.866L467.618 511.949C466.908 512.928 466.135 513.922 465.314 514.885ZM308.511 508.872C307.88 507.783 307.28 506.662 306.775 505.542L310.026 504.042C310.484 505.052 311.021 506.062 311.605 507.057L308.527 508.872H308.511ZM471.39 505.494L468.139 504.011C468.613 502.985 469.023 501.927 469.37 500.87L472.764 501.99C472.369 503.174 471.911 504.358 471.39 505.51V505.494ZM304.408 498.36C304.155 497.113 303.981 495.851 303.887 494.604L307.454 494.336C307.533 495.44 307.69 496.561 307.911 497.65L304.408 498.36ZM474.247 494.557L470.68 494.304C470.728 493.673 470.743 493.042 470.743 492.41C470.743 491.937 470.743 491.447 470.696 490.958L474.263 490.753C474.294 491.305 474.31 491.858 474.31 492.41C474.31 493.136 474.279 493.846 474.231 494.557H474.247ZM307.817 487.675L304.297 487.028C304.518 485.797 304.818 484.55 305.197 483.351L308.606 484.408C308.274 485.481 308.006 486.571 307.801 487.675H307.817ZM469.497 484.361C469.165 483.303 468.77 482.246 468.313 481.204L471.58 479.768C472.101 480.936 472.543 482.136 472.906 483.303L469.481 484.361H469.497ZM311.32 478.221L308.211 476.454C308.811 475.396 309.49 474.339 310.216 473.297L313.151 475.349C312.488 476.296 311.873 477.274 311.32 478.237V478.221ZM464.967 475.302C464.32 474.386 463.625 473.471 462.883 472.587L465.63 470.283C466.435 471.245 467.192 472.24 467.902 473.234L464.967 475.286V475.302ZM317.539 470.077L314.982 467.584C315.834 466.716 316.734 465.848 317.649 465.027L320.033 467.694C319.165 468.468 318.328 469.272 317.539 470.077ZM458.07 467.647C457.217 466.889 456.318 466.132 455.418 465.421L457.644 462.612C458.606 463.37 459.553 464.175 460.469 464.98L458.085 467.647H458.07ZM325.478 463.37L323.41 460.45C324.389 459.755 325.415 459.077 326.456 458.414L328.366 461.444C327.372 462.075 326.393 462.723 325.462 463.385L325.478 463.37ZM449.721 461.413C448.9 460.892 448.048 460.387 447.179 459.882L446.706 459.613L448.489 456.504L448.963 456.772C449.878 457.293 450.762 457.83 451.614 458.382L449.705 461.413H449.721ZM334.458 457.972L332.817 454.784C333.89 454.231 334.979 453.695 336.1 453.19L337.599 456.441C336.526 456.93 335.484 457.451 334.442 457.988L334.458 457.972ZM440.488 456.425C439.43 455.936 438.357 455.462 437.268 455.005L438.657 451.706C439.777 452.18 440.898 452.669 441.987 453.174L440.488 456.425ZM344.07 453.726L342.807 450.38C343.928 449.954 345.08 449.544 346.232 449.149L347.384 452.543C346.264 452.921 345.159 453.316 344.07 453.726ZM430.702 452.511C429.597 452.132 428.477 451.785 427.356 451.438L428.398 448.013C429.566 448.36 430.718 448.739 431.854 449.118L430.702 452.511ZM354.124 450.491L353.192 447.034C354.36 446.719 355.528 446.419 356.712 446.135L357.548 449.623C356.396 449.891 355.26 450.191 354.139 450.491H354.124ZM420.554 449.607C419.417 449.339 418.265 449.086 417.113 448.834L417.839 445.33C419.023 445.582 420.207 445.835 421.374 446.119L420.554 449.607ZM364.446 448.171L363.814 444.651C364.998 444.43 366.198 444.241 367.397 444.051L367.934 447.587C366.766 447.76 365.614 447.95 364.461 448.171H364.446ZM410.153 447.587C409.001 447.413 407.833 447.255 406.649 447.098L407.091 443.546C408.29 443.704 409.49 443.862 410.674 444.051L410.137 447.587H410.153ZM374.925 446.719L374.562 443.152C375.762 443.026 376.961 442.931 378.177 442.836L378.445 446.403C377.277 446.498 376.093 446.592 374.925 446.719ZM399.626 446.403C398.458 446.324 397.274 446.245 396.106 446.182L396.28 442.615C397.495 442.678 398.694 442.741 399.894 442.836L399.626 446.403ZM385.5 446.056L385.405 442.473C386.605 442.442 387.82 442.426 389.02 442.426V446.008C387.836 446.008 386.668 446.008 385.484 446.056H385.5Z" fill="#76D6FD"/>
<path style="mix-blend-mode:lighten" opacity="0.5" d="M472.521 118.608H305.586V491.195H305.681C305.128 503.932 313.193 516.763 330.034 526.485C362.625 545.299 415.482 545.299 448.074 526.485C464.377 517.079 472.521 504.737 472.521 492.41V118.608Z" fill="url(#paint2_radial_7729_4480)"/>
<path opacity="0.1" d="M389.069 540.594C435.163 540.594 472.529 519.021 472.529 492.409C472.529 465.797 435.163 444.224 389.069 444.224C342.976 444.224 305.609 465.797 305.609 492.409C305.609 519.021 342.976 540.594 389.069 540.594Z" fill="#53A5F8"/>
<path d="M389.067 470.268C367.524 470.268 345.98 465.533 329.566 456.063C313.499 446.783 304.645 434.378 304.645 421.151C304.645 407.925 313.499 395.52 329.566 386.24C362.378 367.3 415.756 367.3 448.569 386.24C464.636 395.52 473.49 407.925 473.49 421.151C473.49 434.378 464.636 446.783 448.569 456.063C432.17 465.533 410.611 470.268 389.067 470.268ZM389.067 373.929C367.871 373.929 346.674 378.585 330.528 387.897C315.077 396.814 306.57 408.62 306.57 421.136C306.57 433.652 315.077 445.457 330.544 454.374C362.82 473.014 415.346 473.014 447.622 454.374C463.073 445.457 471.58 433.652 471.58 421.136C471.58 408.62 463.073 396.814 447.606 387.897C431.46 378.585 410.264 373.913 389.067 373.913V373.929Z" fill="#53A5F8"/>
<path opacity="0.5" d="M389.067 422.081C367.524 422.081 345.98 417.346 329.566 407.877C313.499 398.596 304.645 386.191 304.645 372.965C304.645 359.739 313.499 347.334 329.566 338.053C362.378 319.114 415.756 319.114 448.569 338.053C464.636 347.334 473.49 359.739 473.49 372.965C473.49 386.191 464.636 398.596 448.569 407.877C432.17 417.346 410.611 422.081 389.067 422.081ZM389.067 325.743C367.871 325.743 346.674 330.399 330.528 339.726C315.077 348.644 306.57 360.449 306.57 372.965C306.57 385.481 315.077 397.286 330.544 406.204C362.82 424.843 415.346 424.843 447.622 406.204C463.073 397.286 471.58 385.481 471.58 372.965C471.58 360.449 463.073 348.644 447.606 339.726C431.46 330.414 410.264 325.743 389.067 325.743Z" fill="#53A5F8"/>
<path opacity="0.3" d="M389.067 373.896C367.524 373.896 345.964 369.161 329.566 359.691C313.499 350.411 304.645 338.021 304.645 324.779C304.645 311.553 313.499 299.148 329.566 289.868C362.378 270.928 415.756 270.928 448.569 289.868C464.636 299.148 473.49 311.553 473.49 324.779C473.49 338.005 464.636 350.411 448.569 359.691C432.17 369.161 410.611 373.896 389.067 373.896ZM389.067 277.557C367.871 277.557 346.674 282.213 330.528 291.541C315.077 300.458 306.57 312.264 306.57 324.779C306.57 337.295 315.077 349.101 330.544 358.018C362.82 376.658 415.346 376.658 447.622 358.018C463.073 349.101 471.58 337.295 471.58 324.779C471.58 312.264 463.073 300.458 447.606 291.541C431.46 282.229 410.264 277.557 389.067 277.557Z" fill="#53A5F8"/>
<path opacity="0.1" d="M389.067 325.695C367.524 325.695 345.964 320.96 329.566 311.49C313.499 302.21 304.645 289.804 304.645 276.578C304.645 263.352 313.499 250.947 329.566 241.667C362.378 222.727 415.756 222.727 448.569 241.667C464.636 250.947 473.49 263.352 473.49 276.578C473.49 289.804 464.636 302.21 448.569 311.49C432.17 320.96 410.611 325.695 389.067 325.695ZM389.067 229.372C367.871 229.372 346.674 234.028 330.528 243.355C315.077 252.273 306.57 264.078 306.57 276.594C306.57 289.11 315.077 300.915 330.544 309.833C362.82 328.472 415.346 328.472 447.622 309.833C463.073 300.915 471.58 289.11 471.58 276.594C471.58 264.078 463.073 252.273 447.606 243.355C431.46 234.043 410.264 229.372 389.067 229.372Z" fill="#53A5F8"/>
<path d="M313.137 407.498C313.137 409.771 311.291 411.618 309.018 411.618C306.745 411.618 304.898 409.771 304.898 407.498C304.898 405.225 306.745 403.379 309.018 403.379C311.291 403.379 313.137 405.225 313.137 407.498Z" fill="#6BD2FE"/>
<path d="M438.123 386.46C440.398 386.46 442.243 384.616 442.243 382.341C442.243 380.066 440.398 378.222 438.123 378.222C435.848 378.222 434.004 380.066 434.004 382.341C434.004 384.616 435.848 386.46 438.123 386.46Z" fill="#6BD2FE"/>
<path d="M399.547 324.779C399.547 327.052 397.701 328.899 395.428 328.899C393.155 328.899 391.309 327.052 391.309 324.779C391.309 322.507 393.155 320.66 395.428 320.66C397.701 320.66 399.547 322.507 399.547 324.779Z" fill="#6BD2FE"/>
<path d="M334.676 290.499C334.676 292.772 332.83 294.619 330.557 294.619C328.284 294.619 326.438 292.772 326.438 290.499C326.438 288.226 328.284 286.38 330.557 286.38C332.83 286.38 334.676 288.226 334.676 290.499Z" fill="#6BD2FE"/>
<path d="M432.864 282.972C432.864 285.245 431.017 287.091 428.744 287.091C426.472 287.091 424.625 285.245 424.625 282.972C424.625 280.699 426.472 278.853 428.744 278.853C431.017 278.853 432.864 280.699 432.864 282.972Z" fill="#6BD2FE"/>
<path d="M467.793 255.099C467.793 257.372 465.947 259.218 463.674 259.218C461.401 259.218 459.555 257.372 459.555 255.099C459.555 252.826 461.401 250.979 463.674 250.979C465.947 250.979 467.793 252.826 467.793 255.099Z" fill="#6BD2FE"/>
<path d="M390.28 229.278C390.28 233.129 387.155 236.254 383.304 236.254C379.453 236.254 376.328 233.129 376.328 229.278C376.328 225.427 379.453 222.302 383.304 222.302C387.155 222.302 390.28 225.427 390.28 229.278Z" fill="#FE55FE"/>
<path style="mix-blend-mode:lighten" opacity="0.2" d="M239.521 479.042C371.805 479.042 479.042 371.805 479.042 239.521C479.042 107.237 371.805 0 239.521 0C107.237 0 0 107.237 0 239.521C0 371.805 107.237 479.042 239.521 479.042Z" fill="url(#paint3_radial_7729_4480)"/>
<path d="M381.853 135.449C383.431 134.818 391.244 130.193 388.939 122.065C386.635 113.921 377.118 117.267 374.388 118.577C371.657 119.887 372.557 120.266 366.575 121.813C360.593 123.359 358.857 122.381 350.571 124.038C342.269 125.711 337.219 125.38 337.219 125.38C344.526 120.124 348.961 110.37 347.367 105.84C345.773 101.311 337.645 102.132 334.52 105.083C331.395 108.034 323.882 114.568 320.284 115.373C316.685 116.178 308.904 119.335 308.904 119.335C308.904 119.335 308.305 114.9 303.854 114.095C299.403 113.306 295.647 116.431 294.132 118.83C292.616 121.229 286.745 123.296 286.745 123.296C283.889 126.106 282.736 128.142 277.765 130.036C275.271 130.983 271.452 130.967 266.733 132.813C252.575 138.353 255.921 143.104 251.486 145.755C247.051 148.407 240.107 153.11 240.107 153.11C223.787 175.964 198.487 199.117 178.664 215.595C200.618 230.604 219.368 263.48 222.367 294.162C222.556 296.056 222.651 297.887 222.714 299.67C240.407 293.246 256.679 294.43 268.563 291.163C285.435 286.539 308.825 263.843 308.825 263.843C319.432 261.223 320.647 260.371 326.218 257.388C331.774 254.389 356.253 247.934 362.866 247.334C369.479 246.734 376.723 245.377 379.075 241.21C382.658 234.866 378.365 227.384 378.365 227.384C378.365 227.384 380.448 227.763 384.047 224.417C387.661 221.071 384.694 213.638 377.749 202.558C370.789 191.478 367.917 170.898 362.408 167.094C356.9 163.29 340.612 153.016 340.612 153.016C349.924 151.264 365.297 144.051 369.842 142.394C374.388 140.721 380.259 136.096 381.837 135.465L381.853 135.449ZM343.927 191.826C345.3 199.67 352.276 207.956 353.822 209.723C355.369 211.491 357.768 216.479 357.768 216.479C356.474 216.273 351.266 217.22 351.266 217.22C338.75 220.519 333.368 219.635 327.891 218.436C322.415 217.236 311.951 207.246 315.896 202.116C319.842 196.971 320.773 184.786 320.773 184.786C322.099 185.986 329.185 184.818 329.185 184.818C331.142 188.985 343.927 191.857 343.927 191.857V191.826Z" fill="url(#paint4_radial_7729_4480)"/>
<path d="M267.968 285.324C278.148 281.726 300.18 265.453 308.829 263.859C308.829 263.859 285.439 286.539 268.567 291.18C259.555 293.657 248.034 293.563 235.281 296.183L240.49 288.023C240.49 288.023 257.788 288.938 267.968 285.34V285.324Z" fill="#4B95FA"/>
<path d="M331.238 186.966C330.291 186.287 329.55 185.561 329.187 184.804C329.187 184.804 328.76 184.867 328.113 184.962C334.695 182.989 338.341 175.129 338.341 175.129C338.767 181.079 331.254 186.966 331.238 186.982V186.966Z" fill="#67E2E8"/>
<path d="M320.789 184.772C320.789 184.772 320.663 186.461 320.3 188.844C318.516 182.326 320.852 173.503 320.852 173.503C320.379 177.48 322.731 185.261 322.746 185.277C321.862 185.23 321.136 185.072 320.789 184.756V184.772Z" fill="#67E2E8"/>
<path d="M344.525 194.257C344.273 193.452 344.067 192.631 343.925 191.826C343.925 191.826 342.821 191.574 341.227 191.132C341.274 191.132 351.927 190.974 359.487 184.708C359.487 184.708 355.037 191.053 344.525 194.257Z" fill="#67E2E8"/>
<g opacity="0.52">
<path d="M355.875 216.526C354.676 216.779 353.761 216.889 353.098 216.905C353.95 216.763 354.976 216.621 355.875 216.526Z" fill="#E28C61"/>
</g>
<path d="M355.148 211.617C355.148 211.617 375.587 218.435 378.381 227.384C373.583 221.071 366.433 217.047 358.542 216.384L357.705 216.321C357.421 215.737 356.285 213.464 355.164 211.617H355.148Z" fill="#67E2E8"/>
<path d="M346.403 151.516C346.403 151.516 314.459 139.252 310.797 138.147L340.642 152.999L346.419 151.516H346.403Z" fill="#67E2E8"/>
<path d="M343.518 118.876C341.83 121.307 339.683 123.611 337.205 125.394C337.205 125.394 339.478 125.521 343.408 125.126L331.129 126.688C338.531 124.905 342.477 120.249 343.503 118.876H343.518Z" fill="#67E2E8"/>
<path d="M307.172 120.502C309.018 119.603 308.087 117.283 307.851 116.762C308.703 118.072 308.892 119.334 308.892 119.334C308.892 119.334 310.549 118.671 312.68 117.867C311.007 118.482 307.172 120.502 307.172 120.502Z" fill="#67E2E8"/>
<path d="M378.385 227.384C378.385 227.384 367.936 214.016 350.465 217.425C350.465 217.425 357.883 215.421 360.629 215.484C362.097 215.515 366.532 217.583 370.02 219.698C373.066 221.545 375.307 223.47 375.307 223.47L378.385 227.4V227.384Z" fill="#67E2E8"/>
<path d="M229.391 227.131C229.391 227.131 257.279 258.302 247.604 288.984L235.42 288.873L229.391 227.131Z" fill="#4B95FA"/>
<path d="M199.605 197.965C190.151 193.672 181.897 194.145 175.726 198.391L162.121 208.129C164.757 208.681 167.487 209.565 170.344 210.859C195.707 222.381 219.003 259.676 222.364 294.177C223.232 303.063 222.68 310.875 220.975 317.409L234.785 307.514C242.914 301.532 247.238 288.779 245.549 271.529C242.566 241.068 222.001 208.144 199.621 197.98L199.605 197.965Z" fill="white"/>
<g style="mix-blend-mode:lighten">
<path d="M54.5722 276.405L54.6353 276.358C54.6827 276.311 54.7458 276.279 54.8089 276.232L143.288 211.301C150.28 206.519 159.639 205.982 170.34 210.843C195.703 222.365 218.998 259.66 222.36 294.161C224.27 313.7 219.377 328.142 210.16 334.913L122.549 399.212C122.47 399.259 122.407 399.307 122.328 399.37L121.555 399.922C114.579 404.594 105.298 405.067 94.6923 400.254C69.3292 388.732 46.0337 351.437 42.6719 316.936C40.778 297.602 45.5602 283.255 54.588 276.405H54.5722Z" fill="url(#paint5_linear_7729_4480)"/>
</g>
<path style="mix-blend-mode:lighten" opacity="0.2" d="M583.857 577.037C716.141 577.037 823.378 469.8 823.378 337.516C823.378 205.232 716.141 97.9951 583.857 97.9951C451.573 97.9951 344.336 205.232 344.336 337.516C344.336 469.8 451.573 577.037 583.857 577.037Z" fill="url(#paint6_radial_7729_4480)"/>
<path d="M617.474 336.269C616.89 335.369 616.338 334.407 615.817 333.397C615.817 333.397 586.54 281.424 584.93 273.753C583.32 266.067 576.896 262.5 574.403 262.011C574.403 262.011 570.204 258.349 564.886 258.223C564.886 258.223 559.851 251.042 541.795 252.446C523.74 253.851 524.134 252.825 524.134 252.825C524.134 252.825 498.487 219.46 492.205 217.866C485.924 216.256 484.062 218.166 476.596 217.677C469.131 217.203 459.977 215.877 453.506 218.403C447.035 220.928 445.015 220.865 445.015 220.865C445.015 220.865 434.503 221.891 437.376 229.577C440.248 237.263 448.913 238.368 450.57 238.005C452.243 237.658 458.525 236.285 460.024 236.774C461.508 237.263 468.689 243.371 478.569 242.424C478.569 242.424 481.505 252.02 487.218 257.828C487.218 257.828 481.805 260.275 482.231 269.76C482.673 279.246 491.59 307.702 493.042 308.996C494.494 310.29 495.141 311.932 503.411 314.015C503.411 314.015 502.433 319.808 491.069 322.128C491.069 322.128 478.585 322.491 463.512 319.224C463.512 319.224 461.082 316.477 455.794 315.294C450.491 314.126 438.828 311.032 431.173 315.988C423.518 320.944 423.266 325.742 429.042 329.972C434.819 334.202 442.505 333.791 442.505 333.791C442.505 333.791 447.745 341.209 451.059 343.435C454.374 345.66 477.054 349.574 492.063 358.823C492.063 358.823 494.194 360.527 503.979 364.363C513.765 368.198 521.719 376.863 521.719 376.863C521.719 376.863 538.623 390.041 556.473 394.918C559.346 395.707 562.029 396.607 564.57 397.57C574.008 371.323 595.646 346.575 617.458 336.269H617.474Z" fill="url(#paint7_radial_7729_4480)"/>
<path d="M507.562 304.719L507.483 300.395L504.153 288.589L500.081 276.894L497.35 270.013L492.805 264.189L486.792 258.097C485.497 258.933 481.915 261.964 482.262 269.76C482.704 279.246 491.621 307.702 493.073 308.996C494.494 310.275 495.172 311.869 503.016 313.905L503.537 313.305L506.094 309.391L507.578 304.735L507.562 304.719Z" fill="#67E2E8"/>
<path d="M487.248 257.812C487.248 257.812 495.739 265.799 497.98 270.565C500.222 275.332 507.166 295.171 507.308 297.459C507.45 299.748 510.654 305.54 503.457 314L502.384 313.715C502.384 313.715 508.066 307.529 506.882 301.137C505.177 291.935 497.996 272.143 496.734 269.855C495.487 267.582 486.664 258.175 486.664 258.175L487.264 257.812H487.248Z" fill="#42D3D3"/>
<path d="M502.23 283.806C502.23 283.806 491.403 276.136 489.414 275.157C489.414 275.157 500.02 282.701 499.973 284.485C499.91 286.268 498.221 287.058 498.221 287.058C498.221 287.058 502.119 285.211 503.335 286.695C504.55 288.178 502.246 283.822 502.246 283.822L502.23 283.806Z" fill="#42D3D3"/>
<path d="M505.78 294.823C505.78 294.823 495.979 299.953 494.605 302.588C494.605 302.588 503.397 297.506 506.206 298.138L505.78 294.823Z" fill="#42D3D3"/>
<path d="M479.06 243.767C479.06 243.767 478.019 239.647 477.719 235.275L477.813 242.488L478.461 242.772L479.06 243.767Z" fill="#67E2E8"/>
<path d="M550.572 386.158C550.572 386.158 528.46 379.056 518.896 370.249C509.331 361.442 500.43 362.437 493.012 359.406C494.369 360.195 497.478 361.805 504.012 364.362C513.798 368.197 521.752 376.862 521.752 376.862C521.752 376.862 537.362 389.031 554.439 394.318L550.588 386.174L550.572 386.158Z" fill="#4B95FA"/>
<path d="M602.638 314.6C612.487 312.249 620.315 314.237 625.444 319.446L636.666 331.299C634.046 331.33 631.252 331.677 628.285 332.388C601.849 338.701 572.587 370.109 562.944 402.527C560.466 410.876 559.535 418.467 559.961 425.049L548.566 412.991C541.89 405.746 540.122 392.726 544.936 376.517C553.459 347.886 579.279 320.172 602.622 314.6H602.638Z" fill="white"/>
<g style="mix-blend-mode:lighten">
<path d="M726.995 416.715L726.948 416.668C726.901 416.62 726.853 416.573 726.806 416.526L654.126 337.864C648.318 331.977 639.463 329.736 628.305 332.387C601.869 338.7 572.607 370.108 562.964 402.526C557.503 420.898 559.507 435.639 567.067 443.83L639.037 521.734C639.1 521.797 639.164 521.861 639.211 521.924L639.858 522.602C645.666 528.379 654.473 530.557 665.537 527.921C691.973 521.608 721.235 490.2 730.878 457.782C736.291 439.6 734.382 424.969 727.011 416.731L726.995 416.715Z" fill="url(#paint8_linear_7729_4480)"/>
</g>
<path opacity="0.4" d="M710.594 390.782C710.83 390.025 711.051 389.267 711.272 388.51C713.955 378.819 713.813 370.422 711.32 363.825L721.121 373.91C723.615 380.508 723.772 388.904 721.074 398.595C720.868 399.352 720.632 400.11 720.395 400.868L710.594 390.782Z" fill="#4B95FA"/>
<path opacity="0.2" d="M685.211 429.719C694.065 421.149 701.546 411.142 706.565 400.805L716.366 410.89C711.347 421.228 703.866 431.234 695.012 439.804L685.211 429.719Z" fill="#4B95FA"/>
<path opacity="0.05" d="M645.473 453.819C656.047 450.868 666.685 445.076 676.312 437.516L686.114 447.601C676.486 455.161 665.848 460.953 655.274 463.905L645.473 453.819Z" fill="#4B95FA"/>
<g style="mix-blend-mode:lighten" opacity="0.15">
<path d="M740.236 347.758C704.93 315.908 633.086 354.513 599.042 408.459L583.859 392.834C626.947 327.319 697.512 304.686 725.053 332.133L740.236 347.758Z" fill="url(#paint9_linear_7729_4480)"/>
</g>
<g style="mix-blend-mode:lighten" opacity="0.3">
<path d="M747.935 400.016C723.203 473.485 632.325 527.068 593.578 491.02L578.316 475.474C618.105 510.97 708.983 457.387 732.673 384.47L747.935 400.016Z" fill="url(#paint10_linear_7729_4480)"/>
</g>
<g style="mix-blend-mode:lighten" opacity="0.15">
<path d="M593.583 491.019C562.554 454.987 602.832 384.059 657.567 351.278L642.305 335.731C575.796 377.272 551.522 447.285 578.321 475.473L593.583 491.019Z" fill="url(#paint11_linear_7729_4480)"/>
</g>
<g opacity="0.2">
<path d="M715.988 365.767C711.617 361.269 705.366 358.602 697.664 358.192L687.863 348.106C695.581 348.517 701.831 351.184 706.187 355.682L715.988 365.767Z" fill="#81DAFE"/>
</g>
<g style="mix-blend-mode:lighten">
<path d="M167.708 391.826C205.287 362.691 179.971 285.166 132.875 242.126L150.931 229.941C207.828 283.919 217.645 357.357 185.763 379.642L167.708 391.826Z" fill="url(#paint12_linear_7729_4480)"/>
</g>
<path opacity="0.4" d="M73.0267 270.281C72.9478 269.492 72.8688 268.703 72.8215 267.93C72.1113 257.892 73.9421 249.7 77.6984 243.734L66.0822 251.657C62.3259 257.623 60.4951 265.815 61.2053 275.853C61.2526 276.642 61.3316 277.415 61.4105 278.204L73.0267 270.281Z" fill="#4B95FA"/>
<path opacity="0.2" d="M90.135 313.496C83.1747 303.332 77.8243 292.031 74.9834 280.904L63.3672 288.827C66.2239 299.97 71.5585 311.255 78.5188 321.419L90.135 313.496Z" fill="#4B95FA"/>
<path opacity="0.05" d="M124.292 345.03C114.523 340.027 105.242 332.23 97.3193 322.902L85.7031 330.825C93.6261 340.153 102.906 347.95 112.676 352.953L124.292 345.03Z" fill="#4B95FA"/>
<g style="mix-blend-mode:lighten" opacity="0.15">
<path d="M52.5703 222.208C93.5111 198.028 156.216 250.191 178.833 309.85L196.826 297.571C167.675 224.78 103.028 188.543 70.5628 209.929L52.5703 222.208Z" fill="url(#paint13_linear_7729_4480)"/>
</g>
<g style="mix-blend-mode:lighten" opacity="0.3">
<path d="M34.6133 271.876C44.1935 348.802 122.571 419.43 167.726 391.826L185.782 379.641C139.727 406.488 61.3495 335.86 52.6689 259.691L34.6133 271.876Z" fill="url(#paint14_linear_7729_4480)"/>
</g>
<g style="mix-blend-mode:lighten" opacity="0.15">
<path d="M167.712 391.826C205.291 362.691 179.975 285.166 132.879 242.126L150.935 229.941C207.832 283.919 217.649 357.357 185.767 379.642L167.712 391.826Z" fill="url(#paint15_linear_7729_4480)"/>
</g>
<g opacity="0.2">
<path d="M72.7227 244.682C77.8994 241.147 84.5598 239.773 92.1987 240.926L103.815 233.003C96.176 231.866 89.5156 233.224 84.3389 236.759L72.7227 244.682Z" fill="#81DAFE"/>
</g>
<defs>
<radialGradient id="paint0_radial_7729_4480" cx="0" cy="0" r="1" gradientUnits="userSpaceOnUse" gradientTransform="translate(383.301 229.961) scale(124.811)">
<stop stop-color="#FC2FFD"/>
<stop offset="0.28" stop-color="#BE21C5"/>
<stop offset="0.78" stop-color="#560B69"/>
<stop offset="1" stop-color="#2D0244"/>
</radialGradient>
<radialGradient id="paint1_radial_7729_4480" cx="0" cy="0" r="1" gradientUnits="userSpaceOnUse" gradientTransform="translate(897.218 817.985) rotate(30) scale(168.435 146.538)">
<stop stop-color="#FC2FFD"/>
<stop offset="0.11" stop-color="#D626DB"/>
<stop offset="0.27" stop-color="#A31BAD"/>
<stop offset="0.44" stop-color="#781287"/>
<stop offset="0.59" stop-color="#570B6A"/>
<stop offset="0.74" stop-color="#400655"/>
<stop offset="0.88" stop-color="#310348"/>
<stop offset="1" stop-color="#2D0244"/>
</radialGradient>
<radialGradient id="paint2_radial_7729_4480" cx="0" cy="0" r="1" gradientUnits="userSpaceOnUse" gradientTransform="translate(389.062 566.684) scale(480.857 480.857)">
<stop stop-color="#FE4DFE"/>
<stop offset="0.22" stop-color="#3874DA"/>
<stop offset="0.26" stop-color="#3C7BDE"/>
<stop offset="0.44" stop-color="#53A5F8"/>
<stop offset="0.5" stop-color="#4C87D7"/>
<stop offset="0.58" stop-color="#425FAA"/>
<stop offset="0.67" stop-color="#3A3D85"/>
<stop offset="0.75" stop-color="#342368"/>
<stop offset="0.84" stop-color="#301054"/>
<stop offset="0.92" stop-color="#2D0548"/>
<stop offset="1" stop-color="#2D0244"/>
</radialGradient>
<radialGradient id="paint3_radial_7729_4480" cx="0" cy="0" r="1" gradientUnits="userSpaceOnUse" gradientTransform="translate(239.557 239.504) rotate(2.65) scale(239.537 239.537)">
<stop stop-color="#8CE2FE"/>
<stop offset="0.05" stop-color="#79CEFC"/>
<stop offset="0.17" stop-color="#53A5F8"/>
<stop offset="0.25" stop-color="#4C87D7"/>
<stop offset="0.38" stop-color="#425FAA"/>
<stop offset="0.5" stop-color="#3A3D85"/>
<stop offset="0.63" stop-color="#342368"/>
<stop offset="0.76" stop-color="#301054"/>
<stop offset="0.88" stop-color="#2D0548"/>
<stop offset="1" stop-color="#2D0244"/>
</radialGradient>
<radialGradient id="paint4_radial_7729_4480" cx="0" cy="0" r="1" gradientUnits="userSpaceOnUse" gradientTransform="translate(346.357 171.971) scale(154.499 154.499)">
<stop stop-color="#9CF5FE"/>
<stop offset="0.25" stop-color="#98F2FD"/>
<stop offset="0.44" stop-color="#8FE8FD"/>
<stop offset="0.61" stop-color="#7FD8FC"/>
<stop offset="0.76" stop-color="#68C2FB"/>
<stop offset="0.91" stop-color="#4BA6FA"/>
<stop offset="0.94" stop-color="#449FFA"/>
</radialGradient>
<linearGradient id="paint5_linear_7729_4480" x1="245.592" y1="218.356" x2="133.045" y2="305.146" gradientUnits="userSpaceOnUse">
<stop stop-color="#3874DA"/>
<stop offset="1" stop-color="#10175A"/>
</linearGradient>
<radialGradient id="paint6_radial_7729_4480" cx="0" cy="0" r="1" gradientUnits="userSpaceOnUse" gradientTransform="translate(583.913 337.49) rotate(2.65) scale(239.537)">
<stop stop-color="#8CE2FE"/>
<stop offset="0.05" stop-color="#79CEFC"/>
<stop offset="0.17" stop-color="#53A5F8"/>
<stop offset="0.25" stop-color="#4C87D7"/>
<stop offset="0.38" stop-color="#425FAA"/>
<stop offset="0.5" stop-color="#3A3D85"/>
<stop offset="0.63" stop-color="#342368"/>
<stop offset="0.76" stop-color="#301054"/>
<stop offset="0.88" stop-color="#2D0548"/>
<stop offset="1" stop-color="#2D0244"/>
</radialGradient>
<radialGradient id="paint7_radial_7729_4480" cx="0" cy="0" r="1" gradientUnits="userSpaceOnUse" gradientTransform="translate(456.552 230.429) scale(214.41 214.41)">
<stop stop-color="#9CF5FE"/>
<stop offset="0.36" stop-color="#9AF3FD"/>
<stop offset="0.49" stop-color="#93ECFD"/>
<stop offset="0.59" stop-color="#87E0FD"/>
<stop offset="0.66" stop-color="#76D0FC"/>
<stop offset="0.73" stop-color="#60BBFB"/>
<stop offset="0.78" stop-color="#46A1FA"/>
<stop offset="0.79" stop-color="#449FFA"/>
</radialGradient>
<linearGradient id="paint8_linear_7729_4480" x1="554.756" y1="325.58" x2="646.429" y2="429.656" gradientUnits="userSpaceOnUse">
<stop stop-color="#3874DA"/>
<stop offset="1" stop-color="#190452"/>
</linearGradient>
<linearGradient id="paint9_linear_7729_4480" x1="711.793" y1="318.431" x2="609.156" y2="418.695" gradientUnits="userSpaceOnUse">
<stop stop-color="#2A023F"/>
<stop offset="0.1" stop-color="#2C0844"/>
<stop offset="0.24" stop-color="#321954"/>
<stop offset="0.41" stop-color="#3C366D"/>
<stop offset="0.59" stop-color="#4A5D91"/>
<stop offset="0.78" stop-color="#5D91BF"/>
<stop offset="0.98" stop-color="#73CEF6"/>
<stop offset="1" stop-color="#76D6FD"/>
</linearGradient>
<linearGradient id="paint10_linear_7729_4480" x1="606.654" y1="504.325" x2="731.17" y2="382.687" gradientUnits="userSpaceOnUse">
<stop stop-color="#2A023F"/>
<stop offset="0.13" stop-color="#2A0645"/>
<stop offset="0.3" stop-color="#2C1356"/>
<stop offset="0.5" stop-color="#2E2873"/>
<stop offset="0.72" stop-color="#32459A"/>
<stop offset="0.95" stop-color="#366ACD"/>
<stop offset="1" stop-color="#3874DA"/>
</linearGradient>
<linearGradient id="paint11_linear_7729_4480" x1="15.8803" y1="998.374" x2="667.783" y2="361.542" gradientUnits="userSpaceOnUse">
<stop stop-color="#2A023F"/>
<stop offset="0.13" stop-color="#2A0645"/>
<stop offset="0.3" stop-color="#2C1356"/>
<stop offset="0.5" stop-color="#2E2873"/>
<stop offset="0.72" stop-color="#32459A"/>
<stop offset="0.95" stop-color="#366ACD"/>
<stop offset="1" stop-color="#3874DA"/>
</linearGradient>
<linearGradient id="paint12_linear_7729_4480" x1="201.27" y1="368.938" x2="120.683" y2="250.224" gradientUnits="userSpaceOnUse">
<stop stop-color="#2A023F"/>
<stop offset="0.06" stop-color="#2C0844"/>
<stop offset="0.14" stop-color="#341953"/>
<stop offset="0.23" stop-color="#40366B"/>
<stop offset="0.32" stop-color="#525D8D"/>
<stop offset="0.43" stop-color="#6891B9"/>
<stop offset="0.54" stop-color="#83CEED"/>
<stop offset="0.57" stop-color="#8CE2FE"/>
</linearGradient>
<linearGradient id="paint13_linear_7729_4480" x1="86.212" y1="199.138" x2="166.799" y2="317.852" gradientUnits="userSpaceOnUse">
<stop stop-color="#2A023F"/>
<stop offset="0.1" stop-color="#2C0844"/>
<stop offset="0.24" stop-color="#321954"/>
<stop offset="0.41" stop-color="#3C366D"/>
<stop offset="0.59" stop-color="#4A5D91"/>
<stop offset="0.78" stop-color="#5D91BF"/>
<stop offset="0.98" stop-color="#73CEF6"/>
<stop offset="1" stop-color="#76D6FD"/>
</linearGradient>
<linearGradient id="paint14_linear_7729_4480" x1="152.121" y1="402.303" x2="54.3637" y2="258.295" gradientUnits="userSpaceOnUse">
<stop stop-color="#2A023F"/>
<stop offset="0.13" stop-color="#2A0645"/>
<stop offset="0.3" stop-color="#2C1356"/>
<stop offset="0.5" stop-color="#2E2873"/>
<stop offset="0.72" stop-color="#32459A"/>
<stop offset="0.95" stop-color="#366ACD"/>
<stop offset="1" stop-color="#3874DA"/>
</linearGradient>
<linearGradient id="paint15_linear_7729_4480" x1="201.274" y1="368.938" x2="120.687" y2="250.224" gradientUnits="userSpaceOnUse">
<stop stop-color="#2A023F"/>
<stop offset="0.13" stop-color="#2A0645"/>
<stop offset="0.3" stop-color="#2C1356"/>
<stop offset="0.5" stop-color="#2E2873"/>
<stop offset="0.72" stop-color="#32459A"/>
<stop offset="0.95" stop-color="#366ACD"/>
<stop offset="1" stop-color="#3874DA"/>
</linearGradient>
</defs>
</svg>
