<svg width="230" height="39" viewBox="0 0 230 39" fill="none" xmlns="http://www.w3.org/2000/svg">
<g clip-path="url(#clip0_4707_3731)">
<path d="M7.67377 18.5927C9.12115 26.7211 19.6795 29.7229 19.4337 29.7229C11.7053 30.2884 5.10672 27.0625 2.01056 22.4344C-1.0856 17.8096 -1.03781 11.5451 5.22961 6.70286C11.497 1.8606 19.5703 2.8846 19.5703 2.8846C13.733 4.34029 6.21274 10.3772 7.67377 18.5927ZM27.9302 4.76529C28.3228 5.01292 28.5857 4.87906 28.5857 4.87906C28.5857 4.87906 28.671 4.4273 28.4662 4.18636C28.2648 3.94541 27.7254 3.90526 27.7254 3.90526C27.7254 3.90526 27.5411 4.51765 27.9302 4.76529ZM29.9648 14.0215C30.9274 14.7711 33.4467 16.6651 34.225 19.5431C34.7336 21.2966 34.4981 23.8466 33.1258 25.7105C32.0129 27.1428 29.4357 28.8294 28.0327 29.2811C26.8925 29.7095 25.7455 29.8166 25.7455 29.8166C25.7455 29.8166 26.4487 29.4083 27.169 28.6855C27.7459 28.1066 28.3365 27.3034 28.5822 26.5438C29.1387 24.8338 28.8553 23.2442 27.4592 21.5074C26.0732 19.784 23.8271 18.4689 22.6459 16.7756C21.458 15.0756 19.7444 11.4581 21.6014 6.35149C22.4821 3.41333 25.0696 1.58619 26.9539 1.79701C27.6947 1.85725 28.1078 2.11158 28.1078 2.11158L29.0909 0.686002C29.0909 0.686002 28.7802 0.532067 28.9509 0.214157C29.0499 0.0267577 29.3196 -0.0100529 29.48 0.100379C29.6575 0.22085 29.6439 0.552145 29.4732 0.655884C29.3435 0.736198 29.1933 0.722813 29.1933 0.722813L28.2306 2.1785L28.4798 2.33579L29.9887 0.806473C29.9887 0.806473 29.62 0.578917 29.8521 0.180693C29.9818 -0.0401707 30.3915 -0.0769813 30.5553 0.180693C30.7089 0.428328 30.6509 0.856669 30.1491 0.849977L28.6266 2.42614L28.8792 2.63696L30.9957 1.00726C30.9957 1.00726 30.7738 0.709427 30.9923 0.421635C31.081 0.307857 31.2449 0.247621 31.3985 0.247621C31.6409 0.247621 31.8389 0.475178 31.8491 0.662577C31.8627 0.933637 31.6306 1.35194 31.0879 1.09427C29.0909 2.71059 29.0294 2.76078 29.026 2.76413L29.3094 3.08204L31.6272 1.86059C31.6272 1.86059 31.5692 1.70331 31.5999 1.53599C31.6272 1.37871 31.716 1.2047 31.9754 1.111C32.2553 1.0106 32.5147 1.12773 32.6376 1.30844C32.7196 1.42891 32.7469 1.58953 32.7366 1.73343C32.7093 2.09819 32.1631 2.38598 31.7979 2.07477C29.5039 3.19582 29.4322 3.23263 29.4288 3.23263C29.4288 3.23263 29.7429 3.74128 29.7838 3.84167C31.7876 3.14897 31.8491 3.12554 31.8525 3.12554C31.8525 3.12554 31.8354 2.49307 32.5011 2.42949C32.8493 2.39602 33.0541 2.57673 33.1599 2.76078C33.2589 2.9281 33.2521 3.13893 33.2145 3.30625C33.1633 3.5338 32.8732 3.77809 32.5455 3.78144C32.3236 3.78144 32.0744 3.66766 31.9139 3.36983C29.9409 4.06254 29.8794 4.08596 29.876 4.08596C29.876 4.08596 30.1696 4.81214 30.1832 5.3643C30.2003 5.81272 30.1628 6.01685 30.1628 6.01685C30.1628 6.01685 30.9274 6.73298 30.9854 7.54951L30.965 8.08828C30.965 8.08828 29.9852 6.9438 29.2308 6.67274C29.2172 6.81329 28.1863 6.57904 27.7186 6.17413C27.1315 5.66547 26.7389 5.27394 26.3327 5.29402C25.9264 5.3141 25.1891 5.72571 24.8921 6.76979C24.5951 7.81387 24.6668 9.12232 25.6056 10.317C26.5477 11.5083 29.0021 13.2685 29.9648 14.0181V14.0215Z" fill="white"/>
<path d="M65.265 28.6721C63.2032 29.7396 60.6362 30.275 57.5639 30.275C53.5973 30.275 50.4192 29.0234 48.0365 26.5203C45.6503 24.0172 44.459 20.731 44.459 16.6651C44.459 12.2947 45.8005 8.76087 48.4836 6.06701C51.1668 3.37314 54.5701 2.02454 58.6938 2.02454C61.3394 2.02454 63.5275 2.39933 65.265 3.14893V6.56228C63.2681 5.468 61.0663 4.92253 58.6529 4.92253C55.4509 4.92253 52.8565 5.96996 50.8664 8.06817C48.8762 10.1664 47.8829 12.9673 47.8829 16.4744C47.8829 19.9814 48.8114 22.4578 50.6718 24.4321C52.5322 26.4099 54.973 27.3971 57.994 27.3971C60.7932 27.3971 63.2169 26.788 65.265 25.5666V28.6721Z" fill="white"/>
<path d="M87.2456 12.5223C85.5797 10.7319 83.2653 9.83508 80.2954 9.83508C77.3256 9.83508 74.7142 10.7553 72.8879 12.5992C71.0616 14.4431 70.1467 17.0031 70.1467 20.2826C70.1467 23.2977 71.024 25.7138 72.782 27.5376C74.5401 29.3614 76.8886 30.2717 79.8312 30.2717C82.7737 30.2717 85.2623 29.3347 87.051 27.4573C88.8466 25.5833 89.7444 23.0902 89.7444 19.9747C89.7444 16.8592 88.9114 14.3126 87.2456 12.5223ZM84.8219 25.677C83.7125 26.9855 82.1286 27.6414 80.0667 27.6414C78.0049 27.6414 76.4312 26.9754 75.2262 25.6402C74.0212 24.305 73.417 22.4812 73.417 20.1688C73.417 17.8564 74.0144 15.8821 75.2057 14.5167C76.3971 13.1514 78.0186 12.4687 80.0667 12.4687C82.1149 12.4687 83.7125 13.128 84.8219 14.4498C85.9313 15.7716 86.4844 17.6523 86.4844 20.0919C86.4844 22.5314 85.9313 24.3686 84.8219 25.677Z" fill="white"/>
<path d="M109.647 10.3003V13.0075H109.568C108.271 10.8959 106.281 9.8418 103.598 9.8418C100.771 9.8418 98.5456 10.819 96.9173 12.7766C95.289 14.7343 94.4766 17.3712 94.4766 20.6875C94.4766 23.6123 95.2344 25.9414 96.7432 27.6749C98.2554 29.4117 100.249 30.2784 102.724 30.2784C105.769 30.2784 108.053 29.0302 109.568 26.5404H109.647V28.6754C109.647 33.7854 107.196 36.3387 102.297 36.3387C100.263 36.3387 98.1223 35.7297 95.8796 34.5083V37.6338C97.7195 38.5474 99.8701 39.0058 102.335 39.0058C109.336 39.0058 112.835 35.4218 112.835 28.2538V10.3003H109.647ZM109.647 20.9887C109.647 22.933 109.083 24.5292 107.964 25.7708C106.841 27.0156 105.387 27.6381 103.598 27.6381C101.809 27.6381 100.416 26.9855 99.3478 25.6837C98.2793 24.382 97.7434 22.6418 97.7434 20.47C97.7434 17.9401 98.2998 15.9758 99.4161 14.5703C100.532 13.1681 102.075 12.4654 104.045 12.4654C105.639 12.4654 106.974 13.0175 108.042 14.1252C109.111 15.2329 109.647 16.5614 109.647 18.1108V20.9887Z" fill="white"/>
<path d="M136.814 29.8167H133.626V18.6831C133.626 14.5403 132.083 12.4688 128.997 12.4688C127.403 12.4688 126.081 13.0578 125.04 14.2324C123.996 15.407 123.473 16.8928 123.473 18.6831V29.8167H120.285V10.2937H123.473V13.533H123.552C125.054 11.0667 127.232 9.83521 130.086 9.83521C132.264 9.83521 133.929 10.5246 135.083 11.9033C136.237 13.282 136.814 15.2731 136.814 17.88V29.8167Z" fill="white"/>
<path d="M145.451 5.33745C144.88 5.33745 144.392 5.14671 143.993 4.76522C143.59 4.38372 143.389 3.90184 143.389 3.31622C143.389 2.73059 143.59 2.24536 143.993 1.85718C144.396 1.46899 144.88 1.2749 145.451 1.2749C146.021 1.2749 146.529 1.46899 146.939 1.85718C147.348 2.24536 147.55 2.73059 147.55 3.31622C147.55 3.90184 147.345 4.35361 146.939 4.74514C146.529 5.14002 146.031 5.33745 145.451 5.33745Z" fill="white"/>
<path d="M147.005 10.2936H143.816V29.8166H147.005V10.2936Z" fill="white"/>
<path d="M152.586 28.709V24.9342C153.026 25.3157 153.555 25.657 154.17 25.9649C154.784 26.2694 155.433 26.5271 156.115 26.7379C156.795 26.9488 157.481 27.1094 158.167 27.2232C158.853 27.3369 159.488 27.3938 160.072 27.3938C162.082 27.3938 163.581 27.0291 164.574 26.2962C165.568 25.5667 166.063 24.5126 166.063 23.1405C166.063 22.4043 165.899 21.7618 165.568 21.2163C165.237 20.6709 164.779 20.1723 164.195 19.7205C163.612 19.2687 162.922 18.837 162.123 18.4254C161.325 18.0138 160.468 17.5788 159.546 17.1203C158.573 16.6384 157.665 16.1465 156.825 15.6512C155.982 15.156 155.252 14.6105 154.627 14.0115C154.006 13.4158 153.514 12.7365 153.159 11.9802C152.804 11.2239 152.623 10.3371 152.623 9.31983C152.623 8.07496 152.903 6.99072 153.46 6.07046C154.016 5.15019 154.75 4.39055 155.658 3.79155C156.566 3.19588 157.6 2.75081 158.761 2.45633C159.922 2.16519 161.103 2.01794 162.311 2.01794C165.059 2.01794 167.063 2.34255 168.319 2.99175V6.59584C166.674 5.47814 164.561 4.91929 161.98 4.91929C161.267 4.91929 160.553 4.99291 159.84 5.14015C159.126 5.28739 158.491 5.52499 157.935 5.85629C157.378 6.18758 156.924 6.61258 156.573 7.13462C156.221 7.65666 156.047 8.29248 156.047 9.04207C156.047 9.74148 156.18 10.3438 156.447 10.8525C156.713 11.3611 157.105 11.8263 157.624 12.2446C158.143 12.6629 158.775 13.0712 159.519 13.466C160.263 13.8609 161.123 14.2926 162.096 14.7611C163.093 15.243 164.042 15.7516 164.936 16.2871C165.831 16.8225 166.616 17.4115 167.288 18.0607C167.961 18.7099 168.497 19.426 168.893 20.2158C169.289 21.0055 169.487 21.9057 169.487 22.923C169.487 24.2716 169.217 25.4094 168.681 26.3464C168.142 27.2801 167.418 28.0397 166.503 28.6253C165.588 29.2109 164.537 29.6326 163.342 29.8936C162.151 30.1546 160.891 30.2851 159.57 30.2851C159.13 30.2851 158.583 30.2483 157.938 30.1814C157.29 30.1111 156.627 30.0107 155.955 29.8769C155.279 29.743 154.641 29.579 154.04 29.3816C153.432 29.1708 152.951 28.9533 152.586 28.709Z" fill="white"/>
<path d="M191.716 29.8166H188.528V26.7278H188.449C187.128 29.0904 185.08 30.275 182.305 30.275C177.56 30.275 175.188 27.5042 175.188 21.9625V10.2936H178.359V21.4639C178.359 25.58 179.967 27.6414 183.182 27.6414C184.739 27.6414 186.019 27.0792 187.023 25.9548C188.026 24.8304 188.528 23.358 188.528 21.5409V10.2936H191.716V29.8166Z" fill="white"/>
<path d="M209.533 13.4594C208.976 13.0411 208.171 12.8302 207.123 12.8302C205.761 12.8302 204.624 13.4594 203.709 14.7176C202.794 15.9759 202.337 17.6926 202.337 19.8644V29.8167H199.148V10.2937H202.337V14.316H202.415C202.869 12.944 203.562 11.8732 204.498 11.1035C205.43 10.3338 206.474 9.94897 207.628 9.94897C208.457 9.94897 209.092 10.0393 209.533 10.2167V13.4594Z" fill="white"/>
<path d="M227.859 12.3181C226.432 10.6649 224.415 9.83838 221.81 9.83838C219.206 9.83838 217.024 10.7921 215.266 12.7063C213.508 14.6204 212.631 17.0934 212.631 20.132C212.631 23.3479 213.433 25.8409 215.041 27.6145C216.645 29.3882 218.857 30.275 221.67 30.275C224.483 30.275 226.862 29.6525 228.613 28.4077V25.4728C226.736 26.9218 224.674 27.6447 222.431 27.6447C220.434 27.6447 218.864 27.0524 217.724 25.8711C216.584 24.6898 215.986 23.0099 215.935 20.8381H229.999V19.1983C229.999 16.2635 229.286 13.9712 227.859 12.3181ZM215.973 18.1877C216.219 16.4844 216.867 15.1056 217.919 14.0515C218.967 12.9974 220.243 12.4687 221.749 12.4687C223.254 12.4687 224.521 12.9706 225.394 13.9746C226.268 14.9785 226.712 16.384 226.726 18.1877H215.973Z" fill="white"/>
</g>
<defs>
<clipPath id="clip0_4707_3731">
<rect width="230" height="39.0058" fill="white"/>
</clipPath>
</defs>
</svg>
