<svg width="23" height="23" viewBox="0 0 23 23" fill="none" xmlns="http://www.w3.org/2000/svg">
<path opacity="0.9" d="M8.84091 17.2273C8.84091 17.6415 9.1767 17.9773 9.59091 17.9773C10.0051 17.9773 10.3409 17.6415 10.3409 17.2273H8.84091ZM10.3409 5.77273C10.3409 5.35851 10.0051 5.02273 9.59091 5.02273C9.17669 5.02273 8.84091 5.35851 8.84091 5.77273H10.3409ZM5.02273 17.2273C5.02273 17.6415 5.35851 17.9773 5.77273 17.9773C6.18694 17.9773 6.52273 17.6415 6.52273 17.2273H5.02273ZM6.52273 14.3636C6.52273 13.9494 6.18694 13.6136 5.77273 13.6136C5.35851 13.6136 5.02273 13.9494 5.02273 14.3636H6.52273ZM12.6591 17.2273C12.6591 17.6415 12.9949 17.9773 13.4091 17.9773C13.8233 17.9773 14.1591 17.6415 14.1591 17.2273H12.6591ZM14.1591 8.63636C14.1591 8.22215 13.8233 7.88636 13.4091 7.88636C12.9949 7.88636 12.6591 8.22215 12.6591 8.63636H14.1591ZM16.4773 17.2273C16.4773 17.6415 16.8131 17.9773 17.2273 17.9773C17.6415 17.9773 17.9773 17.6415 17.9773 17.2273H16.4773ZM17.9773 11.5C17.9773 11.0858 17.6415 10.75 17.2273 10.75C16.8131 10.75 16.4773 11.0858 16.4773 11.5H17.9773ZM3.60595 21.4798L3.94645 20.8115H3.94645L3.60595 21.4798ZM1.5202 19.394L2.18845 19.0536H2.18845L1.5202 19.394ZM21.4798 19.394L20.8115 19.0536L21.4798 19.394ZM19.394 21.4798L19.0536 20.8115L19.394 21.4798ZM19.394 1.5202L19.0536 2.18845V2.18845L19.394 1.5202ZM21.4798 3.60595L20.8115 3.94645V3.94645L21.4798 3.60595ZM3.60595 1.5202L3.94645 2.18845L3.60595 1.5202ZM1.5202 3.60595L2.18845 3.94645L1.5202 3.60595ZM10.3409 17.2273L10.3409 5.77273H8.84091L8.84091 17.2273H10.3409ZM6.52273 17.2273V14.3636H5.02273V17.2273H6.52273ZM14.1591 17.2273V8.63636H12.6591V17.2273H14.1591ZM17.9773 17.2273V11.5H16.4773V17.2273H17.9773ZM8.63636 1.75H14.3636V0.25H8.63636V1.75ZM21.25 8.63636V14.3636H22.75V8.63636H21.25ZM14.3636 21.25H8.63636V22.75H14.3636V21.25ZM1.75 14.3636V8.63636H0.25V14.3636H1.75ZM8.63636 21.25C7.2875 21.25 6.32096 21.2494 5.56272 21.1875C4.81324 21.1262 4.33357 21.0088 3.94645 20.8115L3.26546 22.1481C3.89928 22.471 4.59833 22.6137 5.44057 22.6825C6.27406 22.7506 7.31225 22.75 8.63636 22.75V21.25ZM0.25 14.3636C0.25 15.6877 0.249417 16.7259 0.317515 17.5594C0.386329 18.4017 0.528993 19.1007 0.851941 19.7345L2.18845 19.0536C1.9912 18.6664 1.87377 18.1868 1.81253 17.4373C1.75058 16.679 1.75 15.7125 1.75 14.3636H0.25ZM3.94645 20.8115C3.18952 20.4259 2.57412 19.8105 2.18845 19.0536L0.851941 19.7345C1.38142 20.7737 2.22629 21.6186 3.26546 22.1481L3.94645 20.8115ZM21.25 14.3636C21.25 15.7125 21.2494 16.679 21.1875 17.4373C21.1262 18.1868 21.0088 18.6664 20.8115 19.0536L22.1481 19.7345C22.471 19.1007 22.6137 18.4017 22.6825 17.5594C22.7506 16.7259 22.75 15.6877 22.75 14.3636H21.25ZM14.3636 22.75C15.6877 22.75 16.7259 22.7506 17.5594 22.6825C18.4017 22.6137 19.1007 22.471 19.7345 22.1481L19.0536 20.8115C18.6664 21.0088 18.1868 21.1262 17.4373 21.1875C16.679 21.2494 15.7125 21.25 14.3636 21.25V22.75ZM20.8115 19.0536C20.4259 19.8105 19.8105 20.4259 19.0536 20.8115L19.7345 22.1481C20.7737 21.6186 21.6186 20.7737 22.1481 19.7345L20.8115 19.0536ZM14.3636 1.75C15.7125 1.75 16.679 1.75058 17.4373 1.81253C18.1868 1.87377 18.6664 1.9912 19.0536 2.18845L19.7345 0.851941C19.1007 0.528993 18.4017 0.386329 17.5594 0.317515C16.7259 0.249417 15.6877 0.25 14.3636 0.25V1.75ZM22.75 8.63636C22.75 7.31225 22.7506 6.27406 22.6825 5.44057C22.6137 4.59833 22.471 3.89928 22.1481 3.26546L20.8115 3.94645C21.0088 4.33357 21.1262 4.81324 21.1875 5.56272C21.2494 6.32096 21.25 7.2875 21.25 8.63636H22.75ZM19.0536 2.18845C19.8105 2.57412 20.4259 3.18952 20.8115 3.94645L22.1481 3.26546C21.6186 2.22629 20.7737 1.38142 19.7345 0.851941L19.0536 2.18845ZM8.63636 0.25C7.31225 0.25 6.27406 0.249417 5.44057 0.317515C4.59833 0.386329 3.89928 0.528993 3.26546 0.851941L3.94645 2.18845C4.33357 1.9912 4.81324 1.87377 5.56272 1.81253C6.32096 1.75058 7.2875 1.75 8.63636 1.75V0.25ZM1.75 8.63636C1.75 7.2875 1.75058 6.32096 1.81253 5.56272C1.87377 4.81324 1.9912 4.33357 2.18845 3.94645L0.851941 3.26546C0.528993 3.89928 0.386329 4.59833 0.317515 5.44057C0.249417 6.27406 0.25 7.31225 0.25 8.63636H1.75ZM3.26546 0.851941C2.22629 1.38142 1.38142 2.22629 0.851941 3.26546L2.18845 3.94645C2.57412 3.18952 3.18952 2.57412 3.94645 2.18845L3.26546 0.851941Z" fill="black"/>
</svg>
