<svg width="25" height="29" viewBox="0 0 25 29" fill="none" xmlns="http://www.w3.org/2000/svg">
<path d="M17.1044 25.5295C16.0002 26.4447 14.5499 27 12.9614 27C11.3729 27 9.92255 26.4447 8.81839 25.5295M22.3528 15.5013V10.8236C22.3528 5.93784 18.1638 2 12.9614 2C7.75899 2 3.51324 5.76996 3.51324 10.8236V15.4696C3.51324 16.1801 3.39532 16.886 3.16401 17.5601L2.00764 20.93C1.97598 21.0223 2.04668 21.1176 2.14681 21.1176H23.7086C23.8144 21.1176 23.8895 21.0207 23.8571 20.9261L22.6928 17.5333C22.4675 16.8767 22.3528 16.1911 22.3528 15.5013Z" stroke="white" stroke-width="2.03038" stroke-linecap="round"/>
</svg>
