<svg id="SvgjsSvg1011" width="288" height="288" xmlns="http://www.w3.org/2000/svg" version="1.1" xmlns:xlink="http://www.w3.org/1999/xlink" xmlns:svgjs="http://svgjs.com/svgjs"><defs id="SvgjsDefs1012"></defs><g id="SvgjsG1013"><svg xmlns="http://www.w3.org/2000/svg" fill="none" viewBox="0 0 14 16" width="288" height="288"><path fill="#d62b2b" fill-rule="evenodd" d="M4.71149 0C4.53299 3.8119e-05 4.36182 0.0709721 4.23563 0.1972L0.197209 4.23542C0.0709756 4.36161 3.81209e-05 4.53277 0 4.71125V12.7877C0 13.3232 0.212738 13.8368 0.591413 14.2154C0.970088 14.5941 1.48368 14.8068 2.01921 14.8068H2.69228C2.87079 14.8068 3.04199 14.7359 3.16821 14.6097C3.29444 14.4834 3.36535 14.3123 3.36535 14.1338C3.36535 13.9553 3.29444 13.7841 3.16821 13.6578C3.04199 13.5316 2.87079 13.4607 2.69228 13.4607H2.01921C1.8407 13.4607 1.6695 13.3898 1.54328 13.2636C1.41705 13.1374 1.34614 12.9662 1.34614 12.7877V5.38429H4.71149C4.89 5.38429 5.06119 5.31338 5.18742 5.18716C5.31365 5.06094 5.38456 4.88975 5.38456 4.71125V1.34607H10.096C10.2746 1.34607 10.4458 1.41698 10.572 1.5432C10.6982 1.66942 10.7691 1.84061 10.7691 2.01911V6.73036C10.7691 6.90886 10.84 7.08005 10.9663 7.20627C11.0925 7.33249 11.2637 7.4034 11.4422 7.4034C11.6207 7.4034 11.7919 7.33249 11.9181 7.20627C12.0443 7.08005 12.1153 6.90886 12.1153 6.73036V2.01911C12.1153 1.48361 11.9025 0.970039 11.5238 0.591383C11.1452 0.212727 10.6316 0 10.096 0H4.71149ZM4.03842 4.03822H2.29786L4.03842 2.29775V4.03822ZM4.91879 15.1857C5.02514 15.317 5.17927 15.424 5.37446 15.4637C5.55619 15.5014 5.71571 15.467 5.82609 15.4267C6.02936 15.3526 6.18955 15.2133 6.2932 15.1103C6.45743 14.9488 6.62974 14.7294 6.80002 14.4817C7.54713 14.2239 8.59577 13.987 9.61615 13.8376C10.1835 13.7548 10.7133 13.703 11.1588 13.6855C11.3352 13.8942 11.496 14.0725 11.63 14.2078C11.7134 14.2926 11.8063 14.3808 11.8979 14.4481C11.9382 14.4784 12.0156 14.5322 12.1146 14.5706C12.1664 14.5907 12.505 14.72 12.8166 14.4683C13.001 14.3202 13.1706 14.1539 13.2891 13.9675C13.4082 13.7791 13.5206 13.4924 13.4271 13.1666C13.3355 12.8469 13.0973 12.6686 12.9216 12.5757C12.7434 12.4874 12.5527 12.427 12.3562 12.3967C12.1703 12.3656 11.9826 12.3465 11.7942 12.3394C11.3201 11.7447 10.8644 11.1356 10.4279 10.5128C10.0469 9.97506 9.68718 9.42252 9.34961 8.85648C9.3799 8.72659 9.4048 8.60275 9.425 8.48429C9.45865 8.28238 9.47884 8.07913 9.47413 7.88866C9.47405 7.67898 9.42907 7.47175 9.34221 7.2809C9.28344 7.1555 9.1981 7.04438 9.09211 6.95524C8.98611 6.8661 8.862 6.80108 8.72837 6.76469C8.45779 6.692 8.20001 6.74651 8.00213 6.81988C7.69723 6.93227 7.52963 7.18331 7.47175 7.42763C7.43409 7.60932 7.43708 7.79709 7.4805 7.9775C7.54377 8.27229 7.69117 8.61217 7.86145 8.94398C7.87626 8.97359 7.89174 9.00388 7.9079 9.03349C7.74703 9.56182 7.51011 10.1844 7.2281 10.8292C6.8155 11.7734 6.33022 12.7096 5.91292 13.3786C5.62821 13.4977 5.36504 13.6344 5.16581 13.7919C5.02985 13.8989 4.84745 14.0725 4.75995 14.3269C4.65293 14.6392 4.72899 14.9515 4.91879 15.1857V15.1857ZM5.97417 14.8707L5.97821 14.866C5.97699 14.8677 5.97564 14.8693 5.97417 14.8707V14.8707ZM9.42096 12.5057C8.87308 12.5864 8.30905 12.6914 7.77396 12.8139C8.01222 12.3516 8.24712 11.8589 8.46183 11.3683C8.58298 11.0903 8.70077 10.8076 8.80981 10.5283C8.97606 10.78 9.14971 11.0351 9.32605 11.2855C9.59315 11.6662 9.86691 12.0423 10.1472 12.4135C9.90691 12.4391 9.66259 12.4707 9.42096 12.5057V12.5057ZM8.79096 7.66184V7.6605V7.66184Z" clip-rule="evenodd" class="color000 svgShape"></path></svg></g></svg>