<svg width="74" height="74" viewBox="0 0 74 74" fill="none" xmlns="http://www.w3.org/2000/svg">
<path d="M1.78125 37C1.78125 56.33 17.4513 72 36.7812 72C56.1112 72 71.7813 56.33 71.7813 37C71.7813 17.67 56.1112 2 36.7812 2" stroke="white" stroke-width="3.37777"/>
<path d="M25.1133 36.0885C24.1805 36.0885 23.4244 36.8446 23.4244 37.7773C23.4244 38.7101 24.1805 39.4662 25.1133 39.4662V36.0885ZM48.0853 38.9716C48.7448 38.312 48.7448 37.2427 48.0853 36.5831L37.3373 25.8351C36.6777 25.1756 35.6084 25.1756 34.9488 25.8351C34.2893 26.4947 34.2893 27.564 34.9488 28.2236L44.5026 37.7773L34.9488 47.3311C34.2893 47.9907 34.2893 49.06 34.9488 49.7196C35.6084 50.3791 36.6777 50.3791 37.3373 49.7196L48.0853 38.9716ZM25.1133 39.4662L46.8911 39.4662V36.0885L25.1133 36.0885V39.4662Z" fill="white"/>
</svg>
