<svg width="22" height="22" viewBox="0 0 22 22" fill="none" xmlns="http://www.w3.org/2000/svg">
<circle cx="11" cy="11" r="10" stroke="white" stroke-width="1.5"/>
<path d="M13.006 16L10.85 12.192H9.926V16H7.966V6.228H11.634C12.39 6.228 13.034 6.36333 13.566 6.634C14.098 6.89533 14.4947 7.25467 14.756 7.712C15.0267 8.16 15.162 8.664 15.162 9.224C15.162 9.868 14.9753 10.4513 14.602 10.974C14.2287 11.4873 13.6733 11.842 12.936 12.038L15.274 16H13.006ZM9.926 10.722H11.564C12.096 10.722 12.4927 10.596 12.754 10.344C13.0153 10.0827 13.146 9.72333 13.146 9.266C13.146 8.818 13.0153 8.47267 12.754 8.23C12.4927 7.978 12.096 7.852 11.564 7.852H9.926V10.722Z" fill="white"/>
</svg>
