<svg xmlns="http://www.w3.org/2000/svg" xmlns:xlink="http://www.w3.org/1999/xlink" version="1.1" width="1000" height="1000" viewBox="0 0 1000 1000" xml:space="preserve">
<desc>Created with Fabric.js 3.5.0</desc>
<defs>
</defs>
<rect x="0" y="0" width="100%" height="100%" fill="rgba(68,0,71,0)"/>
<g transform="matrix(42.2833 0 0 42.2833 500 500)" id="374140">
<path style="stroke: none; stroke-width: 1; stroke-dasharray: none; stroke-linecap: butt; stroke-dashoffset: 0; stroke-linejoin: miter; stroke-miterlimit: 4; is-custom-font: none; font-file-url: none; fill: rgb(255,255,255); fill-rule: nonzero; opacity: 0.9;" vector-effect="non-scaling-stroke" transform=" translate(-10.5, -11)" d="M 5.47059 13.5833 C 5.05637 13.5833 4.72059 13.9191 4.72059 14.3333 C 4.72059 14.7475 5.05637 15.0833 5.47059 15.0833 V 13.5833 Z M 7.70588 15.0833 C 8.1201 15.0833 8.45588 14.7475 8.45588 14.3333 C 8.45588 13.9191 8.1201 13.5833 7.70588 13.5833 V 15.0833 Z M 5.47059 9.13889 C 5.05637 9.13889 4.72059 9.47468 4.72059 9.88889 C 4.72059 10.3031 5.05637 10.6389 5.47059 10.6389 V 9.13889 Z M 12.1765 10.6389 C 12.5907 10.6389 12.9265 10.3031 12.9265 9.88889 C 12.9265 9.47468 12.5907 9.13889 12.1765 9.13889 V 10.6389 Z M 5.47059 4.69444 C 5.05637 4.69444 4.72059 5.03023 4.72059 5.44444 C 4.72059 5.85866 5.05637 6.19444 5.47059 6.19444 V 4.69444 Z M 12.1765 6.19444 C 12.5907 6.19444 12.9265 5.85866 12.9265 5.44444 C 12.9265 5.03023 12.5907 4.69444 12.1765 4.69444 V 6.19444 Z M 15.8971 7.66667 C 15.8971 8.08088 16.2328 8.41667 16.6471 8.41667 C 17.0613 8.41667 17.3971 8.08088 17.3971 7.66667 H 15.8971 Z M 6.58824 21.75 C 7.00245 21.75 7.33824 21.4142 7.33824 21 C 7.33824 20.5858 7.00245 20.25 6.58824 20.25 V 21.75 Z M 2.20488 20.7498 L 2.54902 20.0834 H 2.54902 L 2.20488 20.7498 Z M 1.25166 19.8022 L 0.586937 20.1495 H 0.586937 L 1.25166 19.8022 Z M 15.4422 1.25019 L 15.098 1.91658 L 15.098 1.91658 L 15.4422 1.25019 Z M 16.3954 2.19783 L 15.7307 2.54516 V 2.54516 L 16.3954 2.19783 Z M 2.20488 1.25019 L 1.86075 0.583806 H 1.86075 L 2.20488 1.25019 Z M 1.25166 2.19783 L 0.586937 1.85051 L 1.25166 2.19783 Z M 5.47059 15.0833 H 7.70588 V 13.5833 H 5.47059 V 15.0833 Z M 5.47059 10.6389 H 12.1765 V 9.13889 H 5.47059 V 10.6389 Z M 5.47059 6.19444 H 12.1765 V 4.69444 H 5.47059 V 6.19444 Z M 4.59882 1.75 H 13.0482 V 0.25 H 4.59882 V 1.75 Z M 15.8971 4.57778 V 7.66667 H 17.3971 V 4.57778 H 15.8971 Z M 6.58824 20.25 H 4.59882 V 21.75 H 6.58824 V 20.25 Z M 1.75 17.4222 V 4.57778 H 0.25 V 17.4222 H 1.75 Z M 4.59882 20.25 C 3.94982 20.25 3.50866 20.2494 3.16787 20.2213 C 2.83593 20.1939 2.66674 20.1442 2.54902 20.0834 L 1.86074 21.4162 C 2.22749 21.6056 2.61879 21.681 3.04445 21.7162 C 3.46127 21.7506 3.97485 21.75 4.59882 21.75 V 20.25 Z M 0.25 17.4222 C 0.25 18.0423 0.24939 18.5535 0.284061 18.9686 C 0.319493 19.3928 0.395646 19.7834 0.586937 20.1495 L 1.91639 19.4548 C 1.85602 19.3393 1.80634 19.1727 1.77885 18.8437 C 1.75061 18.5056 1.75 18.0677 1.75 17.4222 H 0.25 Z M 2.54902 20.0834 C 2.27741 19.9432 2.05672 19.7234 1.91639 19.4548 L 0.586937 20.1495 C 0.870755 20.6927 1.31583 21.1348 1.86075 21.4162 L 2.54902 20.0834 Z M 13.0482 1.75 C 13.6972 1.75 14.1384 1.7506 14.4792 1.77873 C 14.8111 1.80614 14.9803 1.85578 15.098 1.91658 L 15.7863 0.583806 C 15.4196 0.394409 15.0283 0.31896 14.6026 0.283817 C 14.1858 0.249404 13.6722 0.25 13.0482 0.25 V 1.75 Z M 17.3971 4.57778 C 17.3971 3.95767 17.3977 3.44646 17.363 3.03141 C 17.3276 2.60725 17.2514 2.2166 17.0601 1.85051 L 15.7307 2.54516 C 15.791 2.66071 15.8407 2.82726 15.8682 3.15628 C 15.8964 3.49441 15.8971 3.93235 15.8971 4.57778 H 17.3971 Z M 15.098 1.91658 C 15.3697 2.05684 15.5903 2.2766 15.7307 2.54516 L 17.0601 1.85051 C 16.7763 1.30733 16.3312 0.865211 15.7863 0.583806 L 15.098 1.91658 Z M 4.59882 0.25 C 3.97485 0.25 3.46127 0.249404 3.04445 0.283817 C 2.61879 0.31896 2.22749 0.394409 1.86075 0.583806 L 2.54902 1.91658 C 2.66674 1.85578 2.83593 1.80614 3.16787 1.77873 C 3.50866 1.7506 3.94982 1.75 4.59882 1.75 V 0.25 Z M 1.75 4.57778 C 1.75 3.93235 1.75061 3.49441 1.77885 3.15628 C 1.80634 2.82727 1.85602 2.66071 1.91639 2.54516 L 0.586937 1.85051 C 0.395645 2.2166 0.319493 2.60725 0.284061 3.03141 C 0.24939 3.44646 0.25 3.95767 0.25 4.57778 H 1.75 Z M 1.86075 0.583806 C 1.31583 0.865211 0.870755 1.30733 0.586937 1.85051 L 1.91639 2.54516 C 2.05672 2.27659 2.27741 2.05684 2.54902 1.91658 L 1.86075 0.583806 Z M 17.0147 14.3333 C 17.0147 15.1423 16.3539 15.8056 15.5294 15.8056 V 17.3056 C 17.174 17.3056 18.5147 15.979 18.5147 14.3333 H 17.0147 Z M 15.5294 15.8056 C 14.705 15.8056 14.0441 15.1423 14.0441 14.3333 H 12.5441 C 12.5441 15.979 13.8848 17.3056 15.5294 17.3056 V 15.8056 Z M 14.0441 14.3333 C 14.0441 13.5244 14.705 12.8611 15.5294 12.8611 V 11.3611 C 13.8848 11.3611 12.5441 12.6877 12.5441 14.3333 H 14.0441 Z M 15.5294 12.8611 C 16.3539 12.8611 17.0147 13.5244 17.0147 14.3333 H 18.5147 C 18.5147 12.6877 17.174 11.3611 15.5294 11.3611 V 12.8611 Z M 19.9942 20.25 H 11.0646 V 21.75 H 19.9942 V 20.25 Z M 19.25 20.9943 C 19.25 20.5791 19.5874 20.25 19.9942 20.25 V 21.75 C 20.4075 21.75 20.75 21.4158 20.75 20.9943 H 19.25 Z M 15.5294 17.3056 C 17.5865 17.3056 19.25 18.9624 19.25 20.9943 H 20.75 C 20.75 18.1232 18.4041 15.8056 15.5294 15.8056 V 17.3056 Z M 11.8088 20.9943 C 11.8088 18.9624 13.4724 17.3056 15.5294 17.3056 V 15.8056 C 12.6548 15.8056 10.3088 18.1232 10.3088 20.9943 H 11.8088 Z M 10.3088 20.9943 C 10.3088 21.4158 10.6513 21.75 11.0646 21.75 V 20.25 C 11.4715 20.25 11.8088 20.5791 11.8088 20.9943 H 10.3088 Z" stroke-linecap="round"/>
</g>
</svg>