<svg width="27" height="30" viewBox="0 0 27 30" fill="none" xmlns="http://www.w3.org/2000/svg">
<g clip-path="url(#clip0_2816_2721)">
<path d="M12.6862 3.39788L12.963 0.556848C13.1273 0.116772 13.6232 -0.110751 14.0704 0.05091C14.5176 0.21257 14.7488 0.700546 14.5845 1.14062L12.6862 3.39788Z" fill="#596DB0"/>
<path d="M13.2673 3.32904L14.4295 1.97589C14.6728 1.80824 15.0045 1.86512 15.1748 2.10462C15.3452 2.34411 15.2874 2.67043 15.044 2.83808L13.2643 3.32904H13.2673Z" fill="#596DB0"/>
<path d="M12.3424 3.42481L11.1073 1.5238C10.9917 1.17054 11.1864 0.793333 11.5454 0.679572C11.9044 0.56581 12.2877 0.757408 12.4033 1.11067L12.3424 3.42481Z" fill="#596DB0"/>
<path d="M26.9969 16.5343C27.0061 17.151 26.9696 17.7617 26.8966 18.3574C26.854 18.6987 26.7992 19.037 26.7292 19.3693C25.4941 25.3627 20.1488 29.9102 13.681 29.997C7.20709 30.0838 1.73712 25.6711 0.343767 19.7046C0.264668 19.3693 0.200781 19.031 0.149063 18.6868C0.0608374 18.1 0.0121614 17.5042 0.00303462 16.8935C-0.100402 9.55892 5.86242 3.53258 13.3159 3.43379C20.7695 3.33499 26.8966 9.19968 26.9969 16.5373V16.5343Z" fill="#596DB0"/>
<path d="M8.06799 7.14899C8.00411 7.146 7.93718 7.14301 7.87329 7.14301C7.44737 7.14899 7.03363 7.25377 6.64422 7.44537C3.87881 8.43928 1.88005 11.7084 1.93177 15.5643C1.98349 19.4202 4.07351 22.6355 6.8663 23.5545C7.2618 23.7342 7.67554 23.83 8.1045 23.824C8.17143 23.824 8.23532 23.821 8.2992 23.815C10.8212 23.5994 12.7835 19.9112 12.7226 15.4236C12.6618 10.933 10.5961 7.29868 8.07103 7.15199L8.06799 7.14899Z" fill="#F3F2E3"/>
<path d="M18.8255 7.00828C18.8893 7.00229 18.9563 6.9993 19.0202 6.9993C19.4461 6.99331 19.8598 7.08611 20.2584 7.26873C23.0511 8.1878 25.1381 11.403 25.1929 15.259C25.2446 19.1149 23.2459 22.384 20.4804 23.3779C20.091 23.5695 19.6773 23.6743 19.2514 23.6803C19.1844 23.6803 19.1206 23.6803 19.0567 23.6743C16.5316 23.5276 14.4659 19.8932 14.4051 15.4026C14.3442 10.9121 16.3065 7.22382 18.8285 7.01127L18.8255 7.00828Z" fill="#F3F2E3"/>
<path d="M23.6108 22.845C23.6565 26.1201 19.2391 28.8384 13.7478 28.9103C8.25657 28.9821 3.76621 26.3866 3.72361 23.1084C3.67798 19.8333 8.12271 19.1358 13.614 19.0639C19.1052 18.9921 23.5682 19.5699 23.6108 22.845Z" fill="#F3F2E3"/>
<path d="M14.4261 17.4435L12.5979 17.4677L12.6069 18.1233L14.4351 18.0991L14.4261 17.4435Z" fill="#646564"/>
<path d="M12.9326 17.4623C12.8626 15.1332 10.8974 13.2741 8.51831 13.307C6.13927 13.3399 4.41431 15.0673 4.23482 17.2437C4.22265 17.3785 4.2196 17.5132 4.2196 17.6509C4.22569 18.0431 4.28349 18.4233 4.38997 18.7825C4.92237 20.5907 6.63211 21.905 8.63391 21.878C10.8335 21.8481 12.6375 20.2105 12.8992 18.1179C12.9235 17.9263 12.9357 17.7317 12.9326 17.5341C12.9326 17.5102 12.9326 17.4862 12.9326 17.4623ZM8.62783 21.2224C6.59256 21.2493 4.91324 19.6417 4.88586 17.6389C4.85848 15.6361 6.49217 13.9866 8.52744 13.9596C10.5627 13.9327 12.242 15.5403 12.2694 17.5431C12.2968 19.5459 10.6631 21.1984 8.62783 21.2254V21.2224Z" fill="#646564"/>
<path d="M22.7895 17.0312C22.5674 14.8428 20.6721 13.1454 18.3965 13.1753C16.1209 13.2053 14.1069 15.1152 14.1008 17.4473C14.1008 17.4713 14.1008 17.4952 14.1008 17.5192C14.1008 17.7168 14.1191 17.9114 14.1495 18.103C14.4689 20.1896 16.3156 21.7793 18.5151 21.7493C20.5109 21.7224 22.178 20.3722 22.6678 18.561C22.7682 18.1928 22.8169 17.8036 22.8138 17.4054C22.8138 17.2797 22.8047 17.157 22.7925 17.0342L22.7895 17.0312ZM18.506 21.0937C16.4707 21.1206 14.7914 19.513 14.764 17.5102C14.7367 15.5074 16.3704 13.8579 18.4056 13.8309C20.4409 13.804 22.1172 15.4116 22.1445 17.4144C22.1719 19.4172 20.5382 21.0697 18.503 21.0967L18.506 21.0937Z" fill="#646564"/>
<path d="M26.8965 18.3574C26.8539 18.6987 26.7992 19.037 26.7292 19.3693L22.6648 18.558L22.3392 18.4922L22.4701 16.9265L22.7864 17.0282L26.8935 18.3574H26.8965Z" fill="#646564"/>
<path d="M4.6242 18.7287L4.39299 18.7826L0.343752 19.7046C0.264653 19.3693 0.200766 19.031 0.149048 18.6868L4.23784 17.2438L4.45079 17.1689L4.6242 18.7317V18.7287Z" fill="#646564"/>
<path d="M18.3848 19.3134C18.9678 19.3057 19.4306 18.5784 19.4184 17.6889C19.4063 16.7995 18.9238 16.0847 18.3408 16.0924C17.7579 16.1001 17.2951 16.8274 17.3073 17.7169C17.3194 18.6063 17.8019 19.3211 18.3848 19.3134Z" fill="#222222"/>
<path d="M8.60359 19.4457C9.18656 19.438 9.6493 18.7107 9.63716 17.8213C9.62501 16.9318 9.14257 16.217 8.55959 16.2247C7.97662 16.2325 7.51388 16.9597 7.52602 17.8492C7.53817 18.7386 8.02061 19.4534 8.60359 19.4457Z" fill="#222222"/>
<path d="M9.40662 21.0967C9.64087 20.8692 11.3172 19.0939 13.5897 19.064C15.7588 19.034 17.7606 20.7824 17.9401 20.9829C17.9401 20.9829 17.0548 25.3777 13.6445 25.4226C10.7391 25.4615 9.40662 21.0967 9.40662 21.0967Z" fill="#EFD33F"/>
<path d="M10.1277 21.6116C11.7522 22.6085 13.5685 22.8151 15.3664 22.2103C15.9506 22.0277 16.5255 21.7763 17.1218 21.5188C16.5833 22.1175 15.8775 22.5905 15.1109 22.8839C14.0126 23.315 12.7258 23.318 11.6519 22.83C11.0525 22.5546 10.4958 22.1565 10.1277 21.6086V21.6116Z" fill="#C87860"/>
<path d="M4.52991 14.0136C5.65858 12.3281 8.35706 10.8193 10.1398 12.4389C10.298 12.5946 10.438 12.7652 10.5566 12.9508C10.4927 12.9119 10.4349 12.87 10.3741 12.8311C10.2767 12.7592 10.1155 12.6724 10.012 12.6095L9.82343 12.5197C7.98895 11.6605 6.03278 13.0317 4.52991 14.0136Z" fill="#222222"/>
<path d="M22.3606 12.0018C21.4418 11.0618 20.371 9.93612 19.0263 9.75949C18.3235 9.67567 17.6512 9.98402 17.1066 10.4001C16.8267 10.6127 16.5682 10.8492 16.3065 11.0977C16.5134 10.6606 16.8024 10.2535 17.1644 9.92115C19.1297 8.14887 21.5362 10.0379 22.3606 12.0018Z" fill="#222222"/>
</g>
<defs>
<clipPath id="clip0_2816_2721">
<rect width="27" height="30" fill="white"/>
</clipPath>
</defs>
</svg>
