<svg width="15" height="15" viewBox="0 0 15 15" fill="none" xmlns="http://www.w3.org/2000/svg">
<path fill-rule="evenodd" clip-rule="evenodd" d="M4.23563 0.1972C4.36182 0.0709721 4.53299 3.8119e-05 4.71149 0H10.096C10.6316 0 11.1452 0.212727 11.5238 0.591383C11.9025 0.97004 12.1153 1.48361 12.1153 2.01911V5.38429C12.1153 5.56279 12.0443 5.73398 11.9181 5.8602C11.7919 5.98642 11.6207 6.05733 11.4422 6.05733C11.2637 6.05733 11.0925 5.98642 10.9663 5.8602C10.84 5.73398 10.7691 5.56279 10.7691 5.38429V2.01911C10.7691 1.84061 10.6982 1.66942 10.572 1.5432C10.4458 1.41698 10.2746 1.34607 10.096 1.34607H5.38456V4.71125C5.38456 4.88975 5.31364 5.06094 5.18742 5.18716C5.06119 5.31338 4.89 5.38429 4.71149 5.38429H1.34614V12.7877C1.34614 12.9662 1.41705 13.1374 1.54328 13.2636C1.6695 13.3898 1.8407 13.4607 2.01921 13.4607H2.69228C2.87079 13.4607 3.04199 13.5316 3.16821 13.6579C3.29444 13.7841 3.36535 13.9553 3.36535 14.1338C3.36535 14.3123 3.29444 14.4835 3.16821 14.6097C3.04199 14.7359 2.87079 14.8068 2.69228 14.8068H2.01921C1.48368 14.8068 0.970088 14.5941 0.591413 14.2154C0.212738 13.8368 0 13.3232 0 12.7877V4.71125C3.81209e-05 4.53277 0.0709756 4.36161 0.197209 4.23542L4.23563 0.1972V0.1972ZM2.29786 4.03822H4.03842V2.29775L2.29786 4.03822ZM10.7691 7.4034C10.9476 7.4034 11.1188 7.47431 11.245 7.60053C11.3713 7.72675 11.4422 7.89794 11.4422 8.07644V12.1147H13.4614C13.6399 12.1147 13.8111 12.1856 13.9373 12.3118C14.0636 12.438 14.1345 12.6092 14.1345 12.7877C14.1345 12.9662 14.0636 13.1374 13.9373 13.2636C13.8111 13.3898 13.6399 13.4607 13.4614 13.4607H10.7691C10.5906 13.4607 10.4194 13.3898 10.2932 13.2636C10.167 13.1374 10.096 12.9662 10.096 12.7877V8.07644C10.096 7.89794 10.167 7.72675 10.2932 7.60053C10.4194 7.47431 10.5906 7.4034 10.7691 7.4034ZM5.93244 7.6854C5.88108 7.61346 5.81606 7.55233 5.74108 7.50551C5.6661 7.4587 5.58264 7.42711 5.49545 7.41254C5.40826 7.39798 5.31906 7.40073 5.23294 7.42065C5.14681 7.44056 5.06545 7.47723 4.9935 7.52858C4.92156 7.57994 4.86043 7.64495 4.81361 7.71993C4.76679 7.7949 4.73519 7.87837 4.72063 7.96555C4.70607 8.05273 4.70882 8.14193 4.72873 8.22805C4.74865 8.31417 4.78532 8.39553 4.83668 8.46747L6.24003 10.4321L4.83668 12.3967C4.78532 12.4686 4.74865 12.55 4.72873 12.6361C4.70882 12.7222 4.70607 12.8114 4.72063 12.8986C4.73519 12.9858 4.76679 13.0692 4.81361 13.1442C4.86043 13.2192 4.92156 13.2842 4.9935 13.3355C5.06545 13.3869 5.14681 13.4236 5.23294 13.4435C5.31906 13.4634 5.40826 13.4661 5.49545 13.4516C5.58264 13.437 5.6661 13.4054 5.74108 13.3586C5.81606 13.3118 5.88108 13.2507 5.93244 13.1787L7.06723 11.5904L8.20203 13.1787C8.30574 13.324 8.46293 13.4222 8.63901 13.4516C8.8151 13.481 8.99565 13.4393 9.14096 13.3355C9.28627 13.2318 9.38442 13.0747 9.41383 12.8986C9.44324 12.7225 9.4015 12.542 9.29778 12.3967L7.89443 10.4321L9.29778 8.46747C9.34914 8.39553 9.38582 8.31417 9.40573 8.22805C9.42564 8.14193 9.42839 8.05273 9.41383 7.96555C9.39927 7.87837 9.36768 7.7949 9.32086 7.71993C9.27404 7.64495 9.21291 7.57994 9.14096 7.52858C9.06901 7.47723 8.98765 7.44056 8.90153 7.42065C8.8154 7.40073 8.7262 7.39798 8.63901 7.41254C8.55183 7.42711 8.46836 7.4587 8.39338 7.50551C8.3184 7.55233 8.25338 7.61346 8.20203 7.6854L7.06723 9.27377L5.93244 7.6854Z" fill="black"/>
</svg>
