<svg width="20" height="20" viewBox="0 0 20 20" fill="none" xmlns="http://www.w3.org/2000/svg">
<path d="M16.2245 15.8857C15.9 15.2499 15.4717 14.6534 14.9397 14.1214C12.2116 11.3933 7.7885 11.3933 5.06041 14.1214C4.52839 14.6534 4.10012 15.2499 3.7756 15.8857M1 10C1 5.02944 5.02944 1 10 1C14.9706 1 19 5.02944 19 10C19 14.9706 14.9706 19 10 19C5.02944 19 1 14.9706 1 10ZM13.2727 8.36364C13.2727 10.1711 11.8075 11.6364 10 11.6364C8.19252 11.6364 6.72727 10.1711 6.72727 8.36364C6.72727 6.55616 8.19252 5.09091 10 5.09091C11.8075 5.09091 13.2727 6.55616 13.2727 8.36364Z" stroke="white" stroke-width="1.5"/>
</svg>
