<svg width="70" height="70" viewBox="0 0 70 70" fill="none" xmlns="http://www.w3.org/2000/svg">
<g filter="url(#filter0_d_5869_4673)">
<rect x="19" y="19" width="30" height="30" rx="5" fill="white"/>
</g>
<path d="M34.75 28C34.75 27.5858 34.4142 27.25 34 27.25C33.5858 27.25 33.25 27.5858 33.25 28L34.75 28ZM33.25 35.3333C33.25 35.7475 33.5858 36.0833 34 36.0833C34.4142 36.0833 34.75 35.7475 34.75 35.3333H33.25ZM37.197 34.5303C37.4899 34.2374 37.4899 33.7626 37.197 33.4697C36.9041 33.1768 36.4292 33.1768 36.1363 33.4697L37.197 34.5303ZM34.4714 36.1953L33.9411 35.6649L34.4714 36.1953ZM33.5286 36.1953L34.0589 35.6649L34.0589 35.6649L33.5286 36.1953ZM31.8637 33.4697C31.5708 33.1768 31.0959 33.1768 30.803 33.4697C30.5101 33.7626 30.5101 34.2374 30.803 34.5303L31.8637 33.4697ZM28.75 36.6667C28.75 36.2525 28.4142 35.9167 28 35.9167C27.5858 35.9167 27.25 36.2525 27.25 36.6667H28.75ZM40.75 36.6667C40.75 36.2525 40.4142 35.9167 40 35.9167C39.5858 35.9167 39.25 36.2525 39.25 36.6667H40.75ZM38.908 39.782L38.5675 39.1138H38.5675L38.908 39.782ZM39.782 38.908L40.4503 39.2485L39.782 38.908ZM28.218 38.908L27.5497 39.2485L28.218 38.908ZM29.092 39.782L28.7515 40.4503L28.7515 40.4503L29.092 39.782ZM33.25 28L33.25 35.3333H34.75L34.75 28L33.25 28ZM36.1363 33.4697L33.9411 35.6649L35.0017 36.7256L37.197 34.5303L36.1363 33.4697ZM34.0589 35.6649L31.8637 33.4697L30.803 34.5303L32.9983 36.7256L34.0589 35.6649ZM33.9411 35.6649C33.9736 35.6324 34.0264 35.6324 34.0589 35.6649L32.9983 36.7256C33.5515 37.2788 34.4485 37.2788 35.0017 36.7256L33.9411 35.6649ZM27.25 36.6667V36.8H28.75V36.6667H27.25ZM31.2 40.75H36.8V39.25H31.2V40.75ZM40.75 36.8V36.6667H39.25V36.8H40.75ZM36.8 40.75C37.3477 40.75 37.8035 40.7506 38.1747 40.7203C38.5546 40.6892 38.9112 40.6221 39.2485 40.4503L38.5675 39.1138C38.4769 39.1599 38.3396 39.2018 38.0525 39.2252C37.7566 39.2494 37.3724 39.25 36.8 39.25V40.75ZM39.25 36.8C39.25 37.3724 39.2494 37.7566 39.2252 38.0525C39.2018 38.3396 39.1599 38.4769 39.1138 38.5675L40.4503 39.2485C40.6221 38.9112 40.6892 38.5546 40.7203 38.1747C40.7506 37.8035 40.75 37.3477 40.75 36.8H39.25ZM39.2485 40.4503C39.7659 40.1866 40.1866 39.7659 40.4503 39.2485L39.1138 38.5675C38.9939 38.8027 38.8027 38.9939 38.5675 39.1138L39.2485 40.4503ZM27.25 36.8C27.25 37.3477 27.2494 37.8035 27.2797 38.1747C27.3108 38.5546 27.3779 38.9112 27.5497 39.2485L28.8862 38.5675C28.8401 38.4769 28.7982 38.3396 28.7748 38.0525C28.7506 37.7566 28.75 37.3724 28.75 36.8H27.25ZM31.2 39.25C30.6276 39.25 30.2434 39.2494 29.9475 39.2252C29.6604 39.2018 29.5231 39.1599 29.4325 39.1138L28.7515 40.4503C29.0888 40.6221 29.4454 40.6892 29.8253 40.7203C30.1965 40.7506 30.6523 40.75 31.2 40.75V39.25ZM27.5497 39.2485C27.8134 39.7659 28.2341 40.1866 28.7515 40.4503L29.4325 39.1138C29.1973 38.9939 29.0061 38.8027 28.8862 38.5675L27.5497 39.2485Z" fill="#2D2D2D"/>
<defs>
<filter id="filter0_d_5869_4673" x="0" y="0" width="70" height="70" filterUnits="userSpaceOnUse" color-interpolation-filters="sRGB">
<feFlood flood-opacity="0" result="BackgroundImageFix"/>
<feColorMatrix in="SourceAlpha" type="matrix" values="0 0 0 0 0 0 0 0 0 0 0 0 0 0 0 0 0 0 127 0" result="hardAlpha"/>
<feOffset dx="1" dy="1"/>
<feGaussianBlur stdDeviation="10"/>
<feComposite in2="hardAlpha" operator="out"/>
<feColorMatrix type="matrix" values="0 0 0 0 0 0 0 0 0 0 0 0 0 0 0 0 0 0 0.05 0"/>
<feBlend mode="normal" in2="BackgroundImageFix" result="effect1_dropShadow_5869_4673"/>
<feBlend mode="normal" in="SourceGraphic" in2="effect1_dropShadow_5869_4673" result="shape"/>
</filter>
</defs>
</svg>
