<svg width="15" height="12" viewBox="0 0 15 12" fill="none" xmlns="http://www.w3.org/2000/svg">
<path d="M1.65 1.625L6.70188 5.40311C7.17132 5.75419 7.82868 5.75419 8.29812 5.40311L13.35 1.625M3.08 11H11.92C12.6481 11 13.0121 11 13.2902 10.8638C13.5348 10.7439 13.7337 10.5527 13.8583 10.3175C14 10.0501 14 9.70007 14 9V3C14 2.29993 14 1.9499 13.8583 1.68251C13.7337 1.44731 13.5348 1.25608 13.2902 1.13624C13.0121 1 12.6481 1 11.92 1H3.08C2.35193 1 1.9879 1 1.70981 1.13624C1.4652 1.25608 1.26633 1.44731 1.14169 1.68251C1 1.9499 1 2.29993 1 3V9C1 9.70007 1 10.0501 1.14169 10.3175C1.26633 10.5527 1.4652 10.7439 1.70981 10.8638C1.9879 11 2.35193 11 3.08 11Z" stroke="#2D2D2D"/>
</svg>
