<svg width="19" height="15" viewBox="0 0 19 15" fill="none" xmlns="http://www.w3.org/2000/svg">
<path d="M1.85 1.8125L8.4563 6.72405C9.07019 7.18045 9.92981 7.18045 10.5437 6.72405L17.15 1.8125M3.72 14H15.28C16.2321 14 16.7081 14 17.0718 13.8229C17.3917 13.6671 17.6517 13.4185 17.8147 13.1127C18 12.7651 18 12.3101 18 11.4V3.6C18 2.68991 18 2.23487 17.8147 1.88727C17.6517 1.5815 17.3917 1.33291 17.0718 1.17711C16.7081 1 16.2321 1 15.28 1H3.72C2.76791 1 2.29187 1 1.92822 1.17711C1.60834 1.33291 1.34827 1.5815 1.18529 1.88727C1 2.23487 1 2.68991 1 3.6V11.4C1 12.3101 1 12.7651 1.18529 13.1127C1.34827 13.4185 1.60834 13.6671 1.92822 13.8229C2.29187 14 2.76791 14 3.72 14Z" stroke="white"/>
</svg>
