<svg width="22" height="22" viewBox="0 0 22 22" fill="none" xmlns="http://www.w3.org/2000/svg">
<path d="M8.43182 16.4545C8.43182 16.8688 8.76761 17.2045 9.18182 17.2045C9.59603 17.2045 9.93182 16.8688 9.93182 16.4545H8.43182ZM9.93182 5.54545C9.93182 5.13124 9.59603 4.79545 9.18182 4.79545C8.7676 4.79545 8.43182 5.13124 8.43182 5.54545L9.93182 5.54545ZM4.79545 16.4545C4.79545 16.8688 5.13124 17.2045 5.54545 17.2045C5.95967 17.2045 6.29545 16.8688 6.29545 16.4545H4.79545ZM6.29545 13.7273C6.29545 13.3131 5.95967 12.9773 5.54545 12.9773C5.13124 12.9773 4.79545 13.3131 4.79545 13.7273H6.29545ZM12.0682 16.4545C12.0682 16.8688 12.404 17.2045 12.8182 17.2045C13.2324 17.2045 13.5682 16.8688 13.5682 16.4545H12.0682ZM13.5682 8.27273C13.5682 7.85851 13.2324 7.52273 12.8182 7.52273C12.404 7.52273 12.0682 7.85851 12.0682 8.27273H13.5682ZM15.7045 16.4545C15.7045 16.8688 16.0403 17.2045 16.4545 17.2045C16.8688 17.2045 17.2045 16.8688 17.2045 16.4545H15.7045ZM17.2045 11C17.2045 10.5858 16.8688 10.25 16.4545 10.25C16.0403 10.25 15.7045 10.5858 15.7045 11H17.2045ZM3.48186 20.5046L3.82235 19.8363H3.82235L3.48186 20.5046ZM1.49542 18.5181L2.16368 18.1776H2.16368L1.49542 18.5181ZM20.5046 18.5181L19.8363 18.1776L20.5046 18.5181ZM18.5181 20.5046L18.1776 19.8363L18.5181 20.5046ZM18.5181 1.49542L18.1776 2.16368V2.16368L18.5181 1.49542ZM20.5046 3.48186L19.8363 3.82235V3.82235L20.5046 3.48186ZM3.48186 1.49542L3.82235 2.16368L3.48186 1.49542ZM1.49542 3.48186L2.16368 3.82235L1.49542 3.48186ZM9.93182 16.4545L9.93182 5.54545L8.43182 5.54545L8.43182 16.4545H9.93182ZM6.29545 16.4545V13.7273H4.79545V16.4545H6.29545ZM13.5682 16.4545V8.27273H12.0682V16.4545H13.5682ZM17.2045 16.4545V11H15.7045V16.4545H17.2045ZM8.27273 1.75H13.7273V0.25H8.27273V1.75ZM20.25 8.27273V13.7273H21.75V8.27273H20.25ZM13.7273 20.25H8.27273V21.75H13.7273V20.25ZM1.75 13.7273V8.27273H0.25V13.7273H1.75ZM8.27273 20.25C6.98751 20.25 6.06869 20.2494 5.34836 20.1906C4.63677 20.1324 4.18517 20.0212 3.82235 19.8363L3.14137 21.1728C3.75088 21.4834 4.42186 21.6199 5.22621 21.6856C6.0218 21.7506 7.01226 21.75 8.27273 21.75V20.25ZM0.25 13.7273C0.25 14.9877 0.249417 15.9782 0.314419 16.7738C0.380136 17.5781 0.516607 18.2491 0.82717 18.8586L2.16368 18.1776C1.97882 17.8148 1.86758 17.3632 1.80944 16.6516C1.75058 15.9313 1.75 15.0125 1.75 13.7273H0.25ZM3.82235 19.8363C3.10819 19.4724 2.52756 18.8918 2.16368 18.1776L0.82717 18.8586C1.33486 19.855 2.14496 20.6651 3.14137 21.1728L3.82235 19.8363ZM20.25 13.7273C20.25 15.0125 20.2494 15.9313 20.1906 16.6516C20.1324 17.3632 20.0212 17.8148 19.8363 18.1776L21.1728 18.8586C21.4834 18.2491 21.6199 17.5781 21.6856 16.7738C21.7506 15.9782 21.75 14.9877 21.75 13.7273H20.25ZM13.7273 21.75C14.9877 21.75 15.9782 21.7506 16.7738 21.6856C17.5781 21.6199 18.2491 21.4834 18.8586 21.1728L18.1776 19.8363C17.8148 20.0212 17.3632 20.1324 16.6516 20.1906C15.9313 20.2494 15.0125 20.25 13.7273 20.25V21.75ZM19.8363 18.1776C19.4724 18.8918 18.8918 19.4724 18.1776 19.8363L18.8586 21.1728C19.855 20.6651 20.6651 19.855 21.1728 18.8586L19.8363 18.1776ZM13.7273 1.75C15.0125 1.75 15.9313 1.75058 16.6516 1.80944C17.3632 1.86758 17.8148 1.97882 18.1776 2.16368L18.8586 0.82717C18.2491 0.516607 17.5781 0.380136 16.7738 0.314419C15.9782 0.249417 14.9877 0.25 13.7273 0.25V1.75ZM21.75 8.27273C21.75 7.01226 21.7506 6.0218 21.6856 5.22621C21.6199 4.42186 21.4834 3.75088 21.1728 3.14137L19.8363 3.82235C20.0212 4.18517 20.1324 4.63677 20.1906 5.34836C20.2494 6.06869 20.25 6.98751 20.25 8.27273H21.75ZM18.1776 2.16368C18.8918 2.52756 19.4724 3.10819 19.8363 3.82235L21.1728 3.14137C20.6651 2.14496 19.855 1.33486 18.8586 0.82717L18.1776 2.16368ZM8.27273 0.25C7.01226 0.25 6.0218 0.249417 5.22621 0.314419C4.42186 0.380136 3.75088 0.516607 3.14137 0.82717L3.82235 2.16368C4.18517 1.97882 4.63677 1.86758 5.34836 1.80944C6.06869 1.75058 6.98751 1.75 8.27273 1.75V0.25ZM1.75 8.27273C1.75 6.98751 1.75058 6.06869 1.80944 5.34836C1.86758 4.63677 1.97882 4.18517 2.16368 3.82235L0.82717 3.14137C0.516607 3.75088 0.380136 4.42186 0.314419 5.22621C0.249417 6.0218 0.25 7.01226 0.25 8.27273H1.75ZM3.14137 0.82717C2.14496 1.33486 1.33486 2.14496 0.82717 3.14137L2.16368 3.82235C2.52756 3.10819 3.10819 2.52756 3.82235 2.16368L3.14137 0.82717Z" fill="#4FE608"/>
</svg>
