<svg width="31" height="28" viewBox="0 0 31 28" fill="none" xmlns="http://www.w3.org/2000/svg">
<path d="M19.8 24V23.25V24ZM10.2 24V24.75V24ZM7 20.8H7.75H7ZM7 7.2H6.25H7ZM7.21799 5.09202L6.54973 4.75152V4.75153L7.21799 5.09202ZM10.2 4V3.25V4ZM8.09202 4.21799L7.75153 3.54973L7.75153 3.54973L8.09202 4.21799ZM8.09202 23.782L7.75153 24.4503L8.09202 23.782ZM7.21799 22.908L7.88624 22.5675L7.21799 22.908ZM21.908 23.782L21.5675 23.1138L21.908 23.782ZM23 20.8H23.75H23ZM22.782 22.908L22.1138 22.5675L22.782 22.908ZM23.75 10C23.75 9.58579 23.4142 9.25 23 9.25C22.5858 9.25 22.25 9.58579 22.25 10H23.75ZM17 4.75C17.4142 4.75 17.75 4.41421 17.75 4C17.75 3.58579 17.4142 3.25 17 3.25V4.75ZM22.8293 9.82929L22.299 10.3596L22.8293 9.82929ZM17.1707 4.17071L17.701 3.64038V3.64038L17.1707 4.17071ZM22.7586 10V10.75V10ZM18 10V9.25V10ZM17 9H17.75H17ZM17 4.24142L16.25 4.24142V4.24142H17ZM7 14H7.75H7ZM16.7685 17.568L16.2382 17.0377C16.0975 17.1784 16.0185 17.3691 16.0185 17.568C16.0185 17.7669 16.0975 17.9577 16.2382 18.0984L16.7685 17.568ZM7.11122 12.879C7.52085 12.8176 7.80313 12.4357 7.74171 12.0261C7.68028 11.6164 7.29842 11.3342 6.88878 11.3956L7.11122 12.879ZM23.0932 11.2558C22.6822 11.2043 22.3073 11.4958 22.2558 11.9068C22.2043 12.3178 22.4958 12.6927 22.9068 12.7442L23.0932 11.2558ZM11.9616 18.2291C12.3753 18.2503 12.7278 17.9321 12.749 17.5185C12.7702 17.1048 12.4521 16.7523 12.0384 16.731L11.9616 18.2291ZM19.4697 21.3298C19.7626 21.6227 20.2374 21.6227 20.5303 21.3298C20.8232 21.037 20.8232 20.5621 20.5303 20.2692L19.4697 21.3298ZM20.5303 14.8669C20.8232 14.574 20.8232 14.0991 20.5303 13.8062C20.2374 13.5133 19.7626 13.5133 19.4697 13.8062L20.5303 14.8669ZM19.8 23.25H10.2V24.75H19.8V23.25ZM7.75 7.2C7.75 6.62757 7.75058 6.24336 7.77476 5.94748C7.79822 5.66035 7.8401 5.52307 7.88624 5.43251L6.54973 4.75153C6.37789 5.08879 6.31078 5.44544 6.27974 5.82533C6.24942 6.19646 6.25 6.65232 6.25 7.2H7.75ZM10.2 3.25C9.65232 3.25 9.19646 3.24942 8.82533 3.27974C8.44545 3.31078 8.08879 3.37789 7.75153 3.54973L8.43251 4.88624C8.52307 4.8401 8.66036 4.79822 8.94748 4.77476C9.24336 4.75058 9.62757 4.75 10.2 4.75V3.25ZM7.88624 5.43251C8.00608 5.19731 8.19731 5.00608 8.43252 4.88624L7.75153 3.54973C7.23408 3.81338 6.81339 4.23408 6.54973 4.75152L7.88624 5.43251ZM10.2 23.25C9.62757 23.25 9.24336 23.2494 8.94748 23.2252C8.66035 23.2018 8.52307 23.1599 8.43251 23.1138L7.75153 24.4503C8.08879 24.6221 8.44545 24.6892 8.82533 24.7203C9.19646 24.7506 9.65232 24.75 10.2 24.75V23.25ZM6.25 20.8C6.25 21.3477 6.24942 21.8035 6.27974 22.1747C6.31078 22.5546 6.37789 22.9112 6.54973 23.2485L7.88624 22.5675C7.8401 22.4769 7.79822 22.3396 7.77476 22.0525C7.75058 21.7566 7.75 21.3724 7.75 20.8H6.25ZM8.43251 23.1138C8.19731 22.9939 8.00608 22.8027 7.88624 22.5675L6.54973 23.2485C6.81338 23.7659 7.23408 24.1866 7.75153 24.4503L8.43251 23.1138ZM19.8 24.75C20.3477 24.75 20.8035 24.7506 21.1747 24.7203C21.5546 24.6892 21.9112 24.6221 22.2485 24.4503L21.5675 23.1138C21.4769 23.1599 21.3396 23.2018 21.0525 23.2252C20.7566 23.2494 20.3724 23.25 19.8 23.25V24.75ZM22.25 20.8C22.25 21.3724 22.2494 21.7566 22.2252 22.0525C22.2018 22.3396 22.1599 22.4769 22.1138 22.5675L23.4503 23.2485C23.6221 22.9112 23.6892 22.5546 23.7203 22.1747C23.7506 21.8035 23.75 21.3477 23.75 20.8H22.25ZM22.2485 24.4503C22.7659 24.1866 23.1866 23.7659 23.4503 23.2485L22.1138 22.5675C21.9939 22.8027 21.8027 22.9939 21.5675 23.1138L22.2485 24.4503ZM22.25 10V20.8H23.75V10H22.25ZM10.2 4.75L17 4.75V3.25L10.2 3.25V4.75ZM23.3596 9.29896L17.701 3.64038L16.6404 4.70104L22.299 10.3596L23.3596 9.29896ZM22.7586 9.25L18 9.25V10.75L22.7586 10.75V9.25ZM17.75 9V4.24142H16.25V9H17.75ZM18 9.25C17.8619 9.25 17.75 9.13807 17.75 9H16.25C16.25 9.9665 17.0335 10.75 18 10.75V9.25ZM17.701 3.64038C17.1656 3.10492 16.25 3.48415 16.25 4.24142L17.75 4.24142C17.75 4.82052 17.0499 5.11052 16.6404 4.70104L17.701 3.64038ZM22.299 10.3596C21.8895 9.95016 22.1795 9.25 22.7586 9.25V10.75C23.5159 10.75 23.8951 9.83442 23.3596 9.29896L22.299 10.3596ZM7.75 20.8L7.75 14H6.25L6.25 20.8H7.75ZM7.75 14L7.75 7.2H6.25L6.25 14H7.75ZM29.25 14.568C29.25 14.5376 29.2575 14.7362 28.6556 15.0706C28.1088 15.3744 27.2583 15.6721 26.1167 15.9326C23.8458 16.4509 20.5959 16.7843 16.7619 16.8181L16.7751 18.318C20.6726 18.2837 24.0385 17.9455 26.4504 17.395C27.6503 17.1212 28.658 16.7852 29.3841 16.3818C30.055 16.0091 30.75 15.4269 30.75 14.568H29.25ZM1.75 14.568C1.75 14.6368 1.70788 14.5847 1.90653 14.4191C2.09827 14.2593 2.42505 14.0728 2.91315 13.8793C3.88227 13.4951 5.31838 13.1478 7.11122 12.879L6.88878 11.3956C5.04621 11.6719 3.48232 12.04 2.36029 12.4849C1.80282 12.7059 1.31124 12.9625 0.946012 13.267C0.587695 13.5657 0.25 13.9993 0.25 14.568H1.75ZM22.9068 12.7442C24.9795 13.0039 26.6682 13.365 27.8199 13.7786C28.4001 13.987 28.8003 14.1936 29.0412 14.3775C29.2967 14.5725 29.25 14.6422 29.25 14.568H30.75C30.75 13.9494 30.3527 13.4915 29.9514 13.1852C29.5354 12.8676 28.9723 12.5988 28.327 12.3669C27.0276 11.9002 25.2163 11.5218 23.0932 11.2558L22.9068 12.7442ZM12.0384 16.731C8.909 16.5706 6.21398 16.1988 4.32041 15.7046C3.36775 15.4559 2.66035 15.187 2.20828 14.9233C1.6999 14.6268 1.75 14.4823 1.75 14.568H0.25C0.25 15.3574 0.885437 15.8882 1.45249 16.219C2.07584 16.5826 2.93395 16.893 3.94163 17.1559C5.96874 17.685 8.77373 18.0656 11.9616 18.2291L12.0384 16.731ZM20.5303 20.2692L17.2989 17.0377L16.2382 18.0984L19.4697 21.3298L20.5303 20.2692ZM17.2989 18.0984L20.5303 14.8669L19.4697 13.8062L16.2382 17.0377L17.2989 18.0984Z" fill="white"/>
<path d="M6 5.88304C6 4.16132 7.10172 2.63276 8.73509 2.0883L13.6838 0.438742C14.3313 0.222898 15 0.704868 15 1.38743V26.6126C15 27.2951 14.3313 27.7771 13.6838 27.5613L8.73509 25.9117C7.10172 25.3672 6 23.8387 6 22.117V5.88304Z" fill="white"/>
<path d="M10.5309 18C10.0508 18 9.61866 17.9212 9.23457 17.7637C8.85048 17.5996 8.5487 17.3699 8.32922 17.0745C8.10974 16.7792 8 16.4346 8 16.0408H9.25514C9.28258 16.3361 9.40261 16.579 9.61523 16.7693C9.8347 16.9597 10.1399 17.0549 10.5309 17.0549C10.9355 17.0549 11.251 16.963 11.4774 16.7792C11.7037 16.5888 11.8169 16.346 11.8169 16.0506C11.8169 15.8209 11.7449 15.6338 11.6008 15.4895C11.4636 15.3451 11.2888 15.2335 11.0761 15.1547C10.8704 15.076 10.5823 14.9906 10.2119 14.8987C9.74554 14.7806 9.36488 14.6624 9.06996 14.5443C8.78189 14.4196 8.53498 14.2293 8.32922 13.9733C8.12346 13.7173 8.02058 13.376 8.02058 12.9494C8.02058 12.5556 8.12346 12.211 8.32922 11.9156C8.53498 11.6203 8.82305 11.3938 9.19342 11.2363C9.56379 11.0788 9.99246 11 10.4794 11C11.1722 11 11.738 11.1674 12.177 11.5021C12.6228 11.8303 12.8697 12.2832 12.9177 12.8608H11.6214C11.6008 12.6113 11.4774 12.398 11.251 12.2208C11.0247 12.0436 10.7263 11.955 10.356 11.955C10.0199 11.955 9.74554 12.037 9.53292 12.2011C9.3203 12.3652 9.21399 12.6015 9.21399 12.91C9.21399 13.12 9.27915 13.294 9.40946 13.4318C9.54664 13.5631 9.71811 13.6681 9.92387 13.7468C10.1296 13.8256 10.4108 13.9109 10.7675 14.0028C11.2407 14.1275 11.6248 14.2522 11.9198 14.3769C12.2215 14.5016 12.4753 14.6953 12.6811 14.9578C12.8937 15.2138 13 15.5584 13 15.9916C13 16.3394 12.9005 16.6676 12.7016 16.9761C12.5096 17.2846 12.225 17.534 11.8477 17.7243C11.4774 17.9081 11.0384 18 10.5309 18Z" fill="#009CC1"/>
</svg>
