<svg width="19" height="27" viewBox="0 0 19 27" fill="none" xmlns="http://www.w3.org/2000/svg">
<path d="M4.2 21.75C4.61421 21.75 4.95 21.4142 4.95 21C4.95 20.5858 4.61421 20.25 4.2 20.25V21.75ZM16.25 11C16.25 11.4142 16.5858 11.75 17 11.75C17.4142 11.75 17.75 11.4142 17.75 11H16.25ZM17 4.2H17.75H17ZM16.782 2.09202L17.4503 1.75153V1.75152L16.782 2.09202ZM13.8 1V0.25V1ZM15.908 1.21799L16.2485 0.549733L16.2485 0.549732L15.908 1.21799ZM2.09202 20.782L2.43251 20.1138L2.09202 20.782ZM1 17.8H0.250001H1ZM1.21799 19.908L1.88624 19.5675H1.88624L1.21799 19.908ZM1.75 7C1.75 6.58579 1.41421 6.25 1 6.25C0.585786 6.25 0.25 6.58579 0.25 7H1.75ZM7 0.250001C6.58579 0.250001 6.25 0.585787 6.25 1C6.25 1.41421 6.58579 1.75 7 1.75V0.250001ZM1.17071 6.82929L0.640382 6.29896L1.17071 6.82929ZM6.82929 1.17071L7.35962 1.70104L6.82929 1.17071ZM1.24142 7L1.24142 7.75L1.24142 7ZM6 7V6.25V7ZM7 6H6.25H7ZM7 1.24142H7.75V1.24142L7 1.24142ZM5 10.25C4.58579 10.25 4.25 10.5858 4.25 11C4.25 11.4142 4.58579 11.75 5 11.75V10.25ZM13 11.75C13.4142 11.75 13.75 11.4142 13.75 11C13.75 10.5858 13.4142 10.25 13 10.25V11.75ZM11 6.25C10.5858 6.25 10.25 6.58579 10.25 7C10.25 7.41421 10.5858 7.75 11 7.75V6.25ZM13 7.75C13.4142 7.75 13.75 7.41421 13.75 7C13.75 6.58579 13.4142 6.25 13 6.25V7.75ZM17.75 11V4.2H16.25V11H17.75ZM17.75 4.2C17.75 3.65232 17.7506 3.19646 17.7203 2.82533C17.6892 2.44544 17.6221 2.08879 17.4503 1.75153L16.1138 2.43251C16.1599 2.52307 16.2018 2.66035 16.2252 2.94748C16.2494 3.24336 16.25 3.62757 16.25 4.2H17.75ZM13.8 1.75C14.3724 1.75 14.7566 1.75058 15.0525 1.77476C15.3396 1.79822 15.4769 1.8401 15.5675 1.88624L16.2485 0.549732C15.9112 0.377888 15.5546 0.310777 15.1747 0.279739C14.8035 0.249417 14.3477 0.25 13.8 0.25V1.75ZM17.4503 1.75152C17.1866 1.23408 16.7659 0.813384 16.2485 0.549733L15.5675 1.88624C15.8027 2.00609 15.9939 2.19731 16.1138 2.43251L17.4503 1.75152ZM4.2 20.25C3.62757 20.25 3.24336 20.2494 2.94748 20.2252C2.66035 20.2018 2.52307 20.1599 2.43251 20.1138L1.75153 21.4503C2.08879 21.6221 2.44545 21.6892 2.82533 21.7203C3.19646 21.7506 3.65232 21.75 4.2 21.75V20.25ZM0.250001 17.8C0.250001 18.3477 0.249418 18.8035 0.27974 19.1747C0.310778 19.5546 0.377889 19.9112 0.549733 20.2485L1.88624 19.5675C1.8401 19.4769 1.79822 19.3396 1.77476 19.0525C1.75058 18.7566 1.75 18.3724 1.75 17.8H0.250001ZM2.43251 20.1138C2.19731 19.9939 2.00609 19.8027 1.88624 19.5675L0.549733 20.2485C0.813385 20.7659 1.23408 21.1866 1.75153 21.4503L2.43251 20.1138ZM0.25 7L0.250001 17.8H1.75L1.75 7H0.25ZM13.8 0.25L7 0.250001V1.75L13.8 1.75V0.25ZM1.70104 7.35962L7.35962 1.70104L6.29896 0.640382L0.640382 6.29896L1.70104 7.35962ZM1.24142 7.75L6 7.75V6.25L1.24142 6.25L1.24142 7.75ZM7.75 6V1.24142H6.25V6H7.75ZM6 7.75C6.9665 7.75 7.75 6.9665 7.75 6H6.25C6.25 6.13807 6.13807 6.25 6 6.25V7.75ZM7.35962 1.70104C6.95014 2.11052 6.25 1.82051 6.25 1.24142L7.75 1.24142C7.75 0.484151 6.83443 0.104914 6.29896 0.640382L7.35962 1.70104ZM0.640382 6.29896C0.104911 6.83443 0.484154 7.75 1.24142 7.75L1.24142 6.25C1.82051 6.25 2.11052 6.95014 1.70104 7.35962L0.640382 6.29896ZM5 11.75H13V10.25H5V11.75ZM11 7.75H13V6.25H11V7.75Z" fill="#707070"/>
<path d="M11.357 22L9.696 19.415L8.189 22H6.451L8.871 18.128L6.418 14.322H8.189L9.85 16.896L11.346 14.322H13.084L10.675 18.183L13.128 22H11.357ZM15.84 20.779H18.37V22H14.3V14.322H15.84V20.779Z" fill="#707070"/>
</svg>
