<svg width="15" height="15" viewBox="0 0 15 15" fill="none" xmlns="http://www.w3.org/2000/svg">
<path d="M10.1 7.5C10.1 8.93594 8.93594 10.1 7.5 10.1C6.06406 10.1 4.9 8.93594 4.9 7.5C4.9 6.06406 6.06406 4.9 7.5 4.9C8.93594 4.9 10.1 6.06406 10.1 7.5Z" stroke="#2D2D2D" stroke-width="1.5"/>
<path d="M8.8 1.98455C8.8 1.4408 8.3592 1 7.81544 1H7.18453C6.64079 1 6.2 1.44079 6.2 1.98453C6.2 2.86166 5.1395 3.3009 4.51928 2.68068C4.13479 2.29619 3.5114 2.29618 3.12691 2.68067L2.68083 3.12675C2.29632 3.51126 2.29632 4.13468 2.68083 4.51918C3.30109 5.13945 2.86179 6.2 1.98461 6.2C1.44082 6.2 1 6.64082 1 7.1846V7.81544C1 8.3592 1.4408 8.8 1.98456 8.8C2.8617 8.8 3.30098 9.8605 2.68075 10.4807C2.29626 10.8652 2.29626 11.4886 2.68075 11.8731L3.12686 12.3192C3.51135 12.7037 4.13474 12.7037 4.51924 12.3192C5.13948 11.699 6.2 12.1383 6.2 13.0154C6.2 13.5592 6.64081 14 7.18458 14H7.8154C8.35918 14 8.8 13.5592 8.8 13.0154C8.8 12.1382 9.86054 11.6989 10.4808 12.3191C10.8653 12.7037 11.4887 12.7037 11.8732 12.3191L12.3193 11.8731C12.7038 11.4886 12.7038 10.8652 12.3193 10.4807C11.6991 9.86048 12.1383 8.8 13.0155 8.8C13.5592 8.8 14 8.35921 14 7.81547V7.18458C14 6.64081 13.5592 6.2 13.0154 6.2C12.1383 6.2 11.699 5.13946 12.3192 4.51921C12.7037 4.13471 12.7037 3.5113 12.3192 3.12679L11.8732 2.68072C11.4887 2.29622 10.8653 2.29623 10.4808 2.68072C9.86052 3.30096 8.8 2.8617 8.8 1.98455Z" stroke="#2D2D2D" stroke-width="1.5"/>
</svg>
