<svg width="20" height="20" viewBox="0 0 20 20" fill="none" xmlns="http://www.w3.org/2000/svg">
<path d="M14.1301 5.03479H14.9649M14.1301 5.86959H14.9649M16.7739 1H10.461C9.87064 1 9.30442 1.23454 8.88693 1.65202L1.65202 8.88694C0.782661 9.75629 0.782661 11.1658 1.65202 12.0352L7.96484 18.348C8.8342 19.2173 10.2437 19.2173 11.1131 18.348L18.348 11.1131C18.7655 10.6956 19 10.1294 19 9.53895V3.22613C19 1.99667 18.0033 1 16.7739 1ZM15.6608 5.45226C15.6608 6.06699 15.1625 6.56532 14.5477 6.56532C13.933 6.56532 13.4347 6.06699 13.4347 5.45226C13.4347 4.83753 13.933 4.33919 14.5477 4.33919C15.1625 4.33919 15.6608 4.83753 15.6608 5.45226Z" stroke="white" stroke-width="1.5" stroke-linecap="round"/>
</svg>
