<svg xmlns="http://www.w3.org/2000/svg" xmlns:xlink="http://www.w3.org/1999/xlink" version="1.1" width="1000" height="1000" viewBox="0 0 1000 1000" xml:space="preserve">
<desc>Created with Fabric.js 3.5.0</desc>
<defs>
</defs>
<rect x="0" y="0" width="100%" height="100%" fill="rgba(0,0,0,0)"/>
<g transform="matrix(42.2833 0 0 42.2833 500 500)" id="496982">
<path style="stroke: none; stroke-width: 1; stroke-dasharray: none; stroke-linecap: butt; stroke-dashoffset: 0; stroke-linejoin: miter; stroke-miterlimit: 4; is-custom-font: none; font-file-url: none; fill: rgb(255,255,255); fill-rule: nonzero; opacity: 0.9;" vector-effect="non-scaling-stroke" transform=" translate(-11, -9)" d="M 10.3536 6.35355 L 10.8839 5.82322 L 10.3536 6.35355 Z M 13.6464 9.64645 L 13.1161 10.1768 L 13.6464 9.64645 Z M 14.3536 9.64645 L 14.8839 10.1768 L 14.8839 10.1768 L 14.3536 9.64645 Z M 20.5303 4.53033 C 20.8232 4.23744 20.8232 3.76256 20.5303 3.46967 C 20.2374 3.17678 19.7626 3.17678 19.4697 3.46967 L 20.5303 4.53033 Z M 4.46967 10.4697 C 4.17678 10.7626 4.17678 11.2374 4.46967 11.5303 C 4.76256 11.8232 5.23744 11.8232 5.53033 11.5303 L 4.46967 10.4697 Z M 9.64645 6.35355 L 10.1768 6.88388 L 10.1768 6.88388 L 9.64645 6.35355 Z M 16 2.25 C 15.5858 2.25 15.25 2.58579 15.25 3 C 15.25 3.41421 15.5858 3.75 16 3.75 V 2.25 Z M 20.25 8 C 20.25 8.41421 20.5858 8.75 21 8.75 C 21.4142 8.75 21.75 8.41421 21.75 8 H 20.25 Z M 21 17.75 C 21.4142 17.75 21.75 17.4142 21.75 17 C 21.75 16.5858 21.4142 16.25 21 16.25 V 17.75 Z M 1.75 1 C 1.75 0.585786 1.41421 0.25 1 0.25 C 0.585786 0.25 0.25 0.585786 0.25 1 H 1.75 Z M 3.18404 16.564 L 3.52453 15.8958 L 3.18404 16.564 Z M 1.43597 14.816 L 0.767719 15.1565 L 1.43597 14.816 Z M 9.82322 6.88388 L 13.1161 10.1768 L 14.1768 9.11612 L 10.8839 5.82322 L 9.82322 6.88388 Z M 14.8839 10.1768 L 20.5303 4.53033 L 19.4697 3.46967 L 13.8232 9.11612 L 14.8839 10.1768 Z M 5.53033 11.5303 L 10.1768 6.88388 L 9.11612 5.82322 L 4.46967 10.4697 L 5.53033 11.5303 Z M 13.1161 10.1768 C 13.6043 10.6649 14.3957 10.6649 14.8839 10.1768 L 13.8232 9.11611 C 13.9209 9.01849 14.0791 9.01848 14.1768 9.11612 L 13.1161 10.1768 Z M 10.8839 5.82322 C 10.3957 5.33507 9.60427 5.33507 9.11612 5.82322 L 10.1768 6.88388 C 10.0791 6.98152 9.92085 6.98151 9.82322 6.88388 L 10.8839 5.82322 Z M 16 3.75 H 20.5 V 2.25 H 16 V 3.75 Z M 20.25 3.5 V 8 H 21.75 V 3.5 H 20.25 Z M 20.5 3.75 C 20.3619 3.75 20.25 3.63807 20.25 3.5 H 21.75 C 21.75 2.80964 21.1904 2.25 20.5 2.25 V 3.75 Z M 21 16.25 H 7.4 V 17.75 H 21 V 16.25 Z M 1.75 10.6 V 1 H 0.25 V 10.6 H 1.75 Z M 7.4 16.25 C 6.26752 16.25 5.46326 16.2494 4.83388 16.198 C 4.21325 16.1473 3.829 16.0509 3.52453 15.8958 L 2.84354 17.2323 C 3.39472 17.5131 3.99834 17.6347 4.71173 17.693 C 5.41637 17.7506 6.29227 17.75 7.4 17.75 V 16.25 Z M 0.25 10.6 C 0.25 11.7077 0.249417 12.5836 0.306988 13.2883 C 0.365274 14.0017 0.486882 14.6053 0.767719 15.1565 L 2.10423 14.4755 C 1.94909 14.171 1.85271 13.7867 1.80201 13.1661 C 1.75058 12.5367 1.75 11.7325 1.75 10.6 H 0.25 Z M 3.52453 15.8958 C 2.913 15.5842 2.41582 15.087 2.10423 14.4755 L 0.767719 15.1565 C 1.22312 16.0502 1.94978 16.7769 2.84355 17.2323 L 3.52453 15.8958 Z" stroke-linecap="round"/>
</g>
</svg>