<svg xmlns="http://www.w3.org/2000/svg" xmlns:xlink="http://www.w3.org/1999/xlink" version="1.1" width="1000" height="1000" viewBox="0 0 1000 1000" xml:space="preserve">
<desc>Created with Fabric.js 3.5.0</desc>
<defs>
</defs>
<rect x="0" y="0" width="100%" height="100%" fill="rgba(255,255,255,0)"/>
<g transform="matrix(40.404 0 0 40.404 499.9995 499.9995)" id="471637">
<path style="stroke: none; stroke-width: 1; stroke-dasharray: none; stroke-linecap: butt; stroke-dashoffset: 0; stroke-linejoin: miter; stroke-miterlimit: 4; is-custom-font: none; font-file-url: none; fill: rgb(255,255,255); fill-rule: nonzero; opacity: 0.9;" vector-effect="non-scaling-stroke" transform=" translate(-11.5, -11.5)" d="M 8.84091 17.2273 C 8.84091 17.6415 9.1767 17.9773 9.59091 17.9773 C 10.0051 17.9773 10.3409 17.6415 10.3409 17.2273 H 8.84091 Z M 10.3409 5.77273 C 10.3409 5.35851 10.0051 5.02273 9.59091 5.02273 C 9.17669 5.02273 8.84091 5.35851 8.84091 5.77273 H 10.3409 Z M 5.02273 17.2273 C 5.02273 17.6415 5.35851 17.9773 5.77273 17.9773 C 6.18694 17.9773 6.52273 17.6415 6.52273 17.2273 H 5.02273 Z M 6.52273 14.3636 C 6.52273 13.9494 6.18694 13.6136 5.77273 13.6136 C 5.35851 13.6136 5.02273 13.9494 5.02273 14.3636 H 6.52273 Z M 12.6591 17.2273 C 12.6591 17.6415 12.9949 17.9773 13.4091 17.9773 C 13.8233 17.9773 14.1591 17.6415 14.1591 17.2273 H 12.6591 Z M 14.1591 8.63636 C 14.1591 8.22215 13.8233 7.88636 13.4091 7.88636 C 12.9949 7.88636 12.6591 8.22215 12.6591 8.63636 H 14.1591 Z M 16.4773 17.2273 C 16.4773 17.6415 16.8131 17.9773 17.2273 17.9773 C 17.6415 17.9773 17.9773 17.6415 17.9773 17.2273 H 16.4773 Z M 17.9773 11.5 C 17.9773 11.0858 17.6415 10.75 17.2273 10.75 C 16.8131 10.75 16.4773 11.0858 16.4773 11.5 H 17.9773 Z M 3.60595 21.4798 L 3.94645 20.8115 H 3.94645 L 3.60595 21.4798 Z M 1.5202 19.394 L 2.18845 19.0536 H 2.18845 L 1.5202 19.394 Z M 21.4798 19.394 L 20.8115 19.0536 L 21.4798 19.394 Z M 19.394 21.4798 L 19.0536 20.8115 L 19.394 21.4798 Z M 19.394 1.5202 L 19.0536 2.18845 V 2.18845 L 19.394 1.5202 Z M 21.4798 3.60595 L 20.8115 3.94645 V 3.94645 L 21.4798 3.60595 Z M 3.60595 1.5202 L 3.94645 2.18845 L 3.60595 1.5202 Z M 1.5202 3.60595 L 2.18845 3.94645 L 1.5202 3.60595 Z M 10.3409 17.2273 L 10.3409 5.77273 H 8.84091 L 8.84091 17.2273 H 10.3409 Z M 6.52273 17.2273 V 14.3636 H 5.02273 V 17.2273 H 6.52273 Z M 14.1591 17.2273 V 8.63636 H 12.6591 V 17.2273 H 14.1591 Z M 17.9773 17.2273 V 11.5 H 16.4773 V 17.2273 H 17.9773 Z M 8.63636 1.75 H 14.3636 V 0.25 H 8.63636 V 1.75 Z M 21.25 8.63636 V 14.3636 H 22.75 V 8.63636 H 21.25 Z M 14.3636 21.25 H 8.63636 V 22.75 H 14.3636 V 21.25 Z M 1.75 14.3636 V 8.63636 H 0.25 V 14.3636 H 1.75 Z M 8.63636 21.25 C 7.2875 21.25 6.32096 21.2494 5.56272 21.1875 C 4.81324 21.1262 4.33357 21.0088 3.94645 20.8115 L 3.26546 22.1481 C 3.89928 22.471 4.59833 22.6137 5.44057 22.6825 C 6.27406 22.7506 7.31225 22.75 8.63636 22.75 V 21.25 Z M 0.25 14.3636 C 0.25 15.6877 0.249417 16.7259 0.317515 17.5594 C 0.386329 18.4017 0.528993 19.1007 0.851941 19.7345 L 2.18845 19.0536 C 1.9912 18.6664 1.87377 18.1868 1.81253 17.4373 C 1.75058 16.679 1.75 15.7125 1.75 14.3636 H 0.25 Z M 3.94645 20.8115 C 3.18952 20.4259 2.57412 19.8105 2.18845 19.0536 L 0.851941 19.7345 C 1.38142 20.7737 2.22629 21.6186 3.26546 22.1481 L 3.94645 20.8115 Z M 21.25 14.3636 C 21.25 15.7125 21.2494 16.679 21.1875 17.4373 C 21.1262 18.1868 21.0088 18.6664 20.8115 19.0536 L 22.1481 19.7345 C 22.471 19.1007 22.6137 18.4017 22.6825 17.5594 C 22.7506 16.7259 22.75 15.6877 22.75 14.3636 H 21.25 Z M 14.3636 22.75 C 15.6877 22.75 16.7259 22.7506 17.5594 22.6825 C 18.4017 22.6137 19.1007 22.471 19.7345 22.1481 L 19.0536 20.8115 C 18.6664 21.0088 18.1868 21.1262 17.4373 21.1875 C 16.679 21.2494 15.7125 21.25 14.3636 21.25 V 22.75 Z M 20.8115 19.0536 C 20.4259 19.8105 19.8105 20.4259 19.0536 20.8115 L 19.7345 22.1481 C 20.7737 21.6186 21.6186 20.7737 22.1481 19.7345 L 20.8115 19.0536 Z M 14.3636 1.75 C 15.7125 1.75 16.679 1.75058 17.4373 1.81253 C 18.1868 1.87377 18.6664 1.9912 19.0536 2.18845 L 19.7345 0.851941 C 19.1007 0.528993 18.4017 0.386329 17.5594 0.317515 C 16.7259 0.249417 15.6877 0.25 14.3636 0.25 V 1.75 Z M 22.75 8.63636 C 22.75 7.31225 22.7506 6.27406 22.6825 5.44057 C 22.6137 4.59833 22.471 3.89928 22.1481 3.26546 L 20.8115 3.94645 C 21.0088 4.33357 21.1262 4.81324 21.1875 5.56272 C 21.2494 6.32096 21.25 7.2875 21.25 8.63636 H 22.75 Z M 19.0536 2.18845 C 19.8105 2.57412 20.4259 3.18952 20.8115 3.94645 L 22.1481 3.26546 C 21.6186 2.22629 20.7737 1.38142 19.7345 0.851941 L 19.0536 2.18845 Z M 8.63636 0.25 C 7.31225 0.25 6.27406 0.249417 5.44057 0.317515 C 4.59833 0.386329 3.89928 0.528993 3.26546 0.851941 L 3.94645 2.18845 C 4.33357 1.9912 4.81324 1.87377 5.56272 1.81253 C 6.32096 1.75058 7.2875 1.75 8.63636 1.75 V 0.25 Z M 1.75 8.63636 C 1.75 7.2875 1.75058 6.32096 1.81253 5.56272 C 1.87377 4.81324 1.9912 4.33357 2.18845 3.94645 L 0.851941 3.26546 C 0.528993 3.89928 0.386329 4.59833 0.317515 5.44057 C 0.249417 6.27406 0.25 7.31225 0.25 8.63636 H 1.75 Z M 3.26546 0.851941 C 2.22629 1.38142 1.38142 2.22629 0.851941 3.26546 L 2.18845 3.94645 C 2.57412 3.18952 3.18952 2.57412 3.94645 2.18845 L 3.26546 0.851941 Z" stroke-linecap="round"/>
</g>
</svg>