<svg width="25" height="25" viewBox="0 0 25 25" fill="none" xmlns="http://www.w3.org/2000/svg">
<g opacity="0.9">
<path d="M23.4697 24.5303C23.7626 24.8232 24.2374 24.8232 24.5303 24.5303C24.8232 24.2374 24.8232 23.7626 24.5303 23.4697L23.4697 24.5303ZM21.4051 11.5775C21.4051 17.0051 17.0051 21.4051 11.5775 21.4051V22.9051C17.8336 22.9051 22.9051 17.8336 22.9051 11.5775H21.4051ZM11.5775 21.4051C6.14994 21.4051 1.75 17.0051 1.75 11.5775H0.25C0.25 17.8336 5.32151 22.9051 11.5775 22.9051V21.4051ZM1.75 11.5775C1.75 6.14994 6.14994 1.75 11.5775 1.75V0.25C5.32151 0.25 0.25 5.32151 0.25 11.5775H1.75ZM11.5775 1.75C17.0051 1.75 21.4051 6.14994 21.4051 11.5775H22.9051C22.9051 5.32151 17.8336 0.25 11.5775 0.25V1.75ZM18.6026 19.6633L23.4697 24.5303L24.5303 23.4697L19.6633 18.6026L18.6026 19.6633Z" fill="white"/>
<path d="M16.207 12.5766L15.5364 12.9124V12.9124L16.207 12.5766ZM14.1183 8.40407L14.7889 8.06834L14.7889 8.06834L14.1183 8.40407ZM9.88173 8.40407L9.21107 8.06835L9.88173 8.40407ZM7.79298 12.5766L8.46364 12.9124H8.46364L7.79298 12.5766ZM12.6343 6.14262L12.9554 5.46483V5.46483L12.6343 6.14262ZM11.3657 6.14262L11.6868 6.82042V6.82042L11.3657 6.14262ZM16.3741 15.7331L16.8036 16.3479V16.3479L16.3741 15.7331ZM16.99 14.7377L16.2481 14.6279L16.99 14.7377ZM7.6259 15.7331L7.19638 16.3479L7.19638 16.3479L7.6259 15.7331ZM7.00996 14.7377L7.75189 14.6279L7.00996 14.7377ZM12.75 9.68101C12.7482 9.2668 12.411 8.93245 11.9968 8.93422C11.5826 8.93598 11.2482 9.2732 11.25 9.68741L12.75 9.68101ZM11.2612 12.3189C11.263 12.7332 11.6002 13.0675 12.0144 13.0657C12.4286 13.064 12.763 12.7268 12.7612 12.3125L11.2612 12.3189ZM12.75 13.8947C12.75 13.4805 12.4142 13.1447 12 13.1447C11.5858 13.1447 11.25 13.4805 11.25 13.8947H12.75ZM11.25 13.9C11.25 14.3142 11.5858 14.65 12 14.65C12.4142 14.65 12.75 14.3142 12.75 13.9H11.25ZM9.91124 16.75H14.0888V15.25H9.91124V16.75ZM16.8777 12.2409L14.7889 8.06834L13.4476 8.7398L15.5364 12.9124L16.8777 12.2409ZM9.21107 8.06835L7.12231 12.2409L8.46364 12.9124L10.5524 8.7398L9.21107 8.06835ZM14.7889 8.06834C14.4547 7.40074 14.1814 6.85312 13.931 6.44927C13.6865 6.05506 13.3907 5.67103 12.9554 5.46483L12.3132 6.82042C12.3392 6.83275 12.4445 6.89846 12.6562 7.23986C12.862 7.57161 13.1 8.04545 13.4476 8.7398L14.7889 8.06834ZM10.5524 8.7398C10.9 8.04545 11.138 7.57161 11.3438 7.23986C11.5555 6.89846 11.6608 6.83275 11.6868 6.82042L11.0446 5.46483C10.6093 5.67102 10.3135 6.05506 10.069 6.44927C9.81857 6.85312 9.54527 7.40075 9.21107 8.06835L10.5524 8.7398ZM12.9554 5.46483C12.3507 5.17839 11.6493 5.17839 11.0446 5.46483L11.6868 6.82042C11.885 6.72653 12.115 6.72653 12.3132 6.82042L12.9554 5.46483ZM14.0888 16.75C14.7086 16.75 15.225 16.7507 15.6322 16.7135C16.0383 16.6764 16.4508 16.5944 16.8036 16.3479L15.9446 15.1182C15.9153 15.1387 15.8195 15.1901 15.4957 15.2198C15.1729 15.2493 14.7378 15.25 14.0888 15.25V16.75ZM15.5364 12.9124C15.8266 13.4922 16.0205 13.8812 16.1384 14.1826C16.2567 14.485 16.2533 14.5931 16.2481 14.6279L17.732 14.8474C17.795 14.4215 17.6838 14.0158 17.5354 13.6363C17.3865 13.2558 17.1548 12.7946 16.8777 12.2409L15.5364 12.9124ZM16.8036 16.3479C17.3063 15.9967 17.6422 15.4541 17.732 14.8474L16.2481 14.6279C16.2188 14.8259 16.1092 15.0033 15.9446 15.1182L16.8036 16.3479ZM9.91124 15.25C9.26221 15.25 8.82706 15.2493 8.50432 15.2198C8.18045 15.1901 8.08472 15.1387 8.05541 15.1182L7.19638 16.3479C7.54916 16.5944 7.96168 16.6764 8.36776 16.7135C8.77496 16.7507 9.29144 16.75 9.91124 16.75V15.25ZM7.12231 12.2409C6.84515 12.7946 6.61345 13.2558 6.46463 13.6363C6.31622 14.0158 6.20504 14.4215 6.26804 14.8474L7.75189 14.6279C7.74674 14.5931 7.74334 14.485 7.86161 14.1826C7.97948 13.8812 8.17336 13.4922 8.46364 12.9124L7.12231 12.2409ZM8.05541 15.1182C7.89082 15.0033 7.78117 14.8259 7.75189 14.6279L6.26804 14.8474C6.35777 15.4541 6.69369 15.9967 7.19638 16.3479L8.05541 15.1182ZM11.25 9.68741L11.2612 12.3189L12.7612 12.3125L12.75 9.68101L11.25 9.68741ZM11.25 13.8947V13.9H12.75V13.8947H11.25Z" fill="white"/>
</g>
</svg>
