<svg width="21" height="23" viewBox="0 0 21 23" fill="none" xmlns="http://www.w3.org/2000/svg">
<g opacity="0.9">
<path d="M5.47059 13.6618C5.05637 13.6618 4.72059 13.9976 4.72059 14.4118C4.72059 14.826 5.05637 15.1618 5.47059 15.1618V13.6618ZM7.70588 15.1618C8.1201 15.1618 8.45588 14.826 8.45588 14.4118C8.45588 13.9976 8.1201 13.6618 7.70588 13.6618V15.1618ZM5.47059 9.19118C5.05637 9.19118 4.72059 9.52696 4.72059 9.94118C4.72059 10.3554 5.05637 10.6912 5.47059 10.6912V9.19118ZM12.1765 10.6912C12.5907 10.6912 12.9265 10.3554 12.9265 9.94118C12.9265 9.52696 12.5907 9.19118 12.1765 9.19118V10.6912ZM5.47059 4.72059C5.05637 4.72059 4.72059 5.05637 4.72059 5.47059C4.72059 5.8848 5.05637 6.22059 5.47059 6.22059V4.72059ZM12.1765 6.22059C12.5907 6.22059 12.9265 5.8848 12.9265 5.47059C12.9265 5.05637 12.5907 4.72059 12.1765 4.72059V6.22059ZM15.8971 9.94118C15.8971 10.3554 16.2328 10.6912 16.6471 10.6912C17.0613 10.6912 17.3971 10.3554 17.3971 9.94118H15.8971ZM7.70588 21.8676C8.1201 21.8676 8.45588 21.5319 8.45588 21.1176C8.45588 20.7034 8.1201 20.3676 7.70588 20.3676V21.8676ZM2.20488 20.866L2.55061 20.2004H2.55061L2.20488 20.866ZM1.25166 19.9128L0.586104 20.2585H0.586104L1.25166 19.9128ZM15.4422 1.25166L15.0964 1.91722V1.91722L15.4422 1.25166ZM16.3954 2.20488L15.7298 2.55061V2.55061L16.3954 2.20488ZM2.20488 1.25166L1.85915 0.586104L1.85915 0.586104L2.20488 1.25166ZM1.25166 2.20488L0.586104 1.85915L0.586104 1.85915L1.25166 2.20488ZM5.47059 15.1618H7.70588V13.6618H5.47059V15.1618ZM5.47059 10.6912H12.1765V9.19118H5.47059V10.6912ZM5.47059 6.22059H12.1765V4.72059H5.47059V6.22059ZM4.59882 1.75H13.0482V0.25H4.59882V1.75ZM15.8971 4.59882V9.94118H17.3971V4.59882H15.8971ZM7.70588 20.3676H4.59882V21.8676H7.70588V20.3676ZM1.75 17.5188V4.59882H0.25V17.5188H1.75ZM4.59882 20.3676C3.94975 20.3676 3.5088 20.367 3.16823 20.3388C2.83665 20.3112 2.66795 20.2614 2.55061 20.2004L1.85915 21.5315C2.22628 21.7223 2.61807 21.7982 3.04409 21.8336C3.46114 21.8682 3.97492 21.8676 4.59882 21.8676V20.3676ZM0.25 17.5188C0.25 18.1427 0.249397 18.6565 0.284031 19.0736C0.31941 19.4996 0.395394 19.8914 0.586104 20.2585L1.91722 19.567C1.85627 19.4497 1.80642 19.281 1.77889 18.9494C1.7506 18.6088 1.75 18.1679 1.75 17.5188H0.25ZM2.55061 20.2004C2.27933 20.0595 2.05814 19.8383 1.91722 19.567L0.586104 20.2585C0.869336 20.8037 1.31391 21.2483 1.85915 21.5315L2.55061 20.2004ZM13.0482 1.75C13.6973 1.75 14.1383 1.7506 14.4788 1.77889C14.8104 1.80642 14.9791 1.85627 15.0964 1.91722L15.7879 0.586104C15.4208 0.395394 15.029 0.31941 14.603 0.284031C14.1859 0.249397 13.6721 0.25 13.0482 0.25V1.75ZM17.3971 4.59882C17.3971 3.97492 17.3977 3.46114 17.363 3.04409C17.3276 2.61807 17.2517 2.22628 17.061 1.85915L15.7298 2.55061C15.7908 2.66795 15.8406 2.83665 15.8682 3.16823C15.8965 3.5088 15.8971 3.94975 15.8971 4.59882H17.3971ZM15.0964 1.91722C15.3677 2.05814 15.5889 2.27933 15.7298 2.55061L17.061 1.85915C16.7777 1.31391 16.3332 0.869335 15.7879 0.586104L15.0964 1.91722ZM4.59882 0.25C3.97492 0.25 3.46114 0.249397 3.04409 0.284031C2.61807 0.31941 2.22628 0.395394 1.85915 0.586104L2.55061 1.91722C2.66795 1.85627 2.83665 1.80642 3.16823 1.77889C3.5088 1.7506 3.94975 1.75 4.59882 1.75V0.25ZM1.75 4.59882C1.75 3.94975 1.7506 3.5088 1.77889 3.16823C1.80642 2.83665 1.85627 2.66795 1.91722 2.55061L0.586104 1.85915C0.395394 2.22628 0.31941 2.61807 0.284031 3.04409C0.249397 3.46114 0.25 3.97492 0.25 4.59882H1.75ZM1.85915 0.586104C1.31391 0.869335 0.869335 1.31391 0.586104 1.85915L1.91722 2.55061C2.05814 2.27933 2.27933 2.05814 2.55061 1.91722L1.85915 0.586104Z" fill="white"/>
<path d="M19.4694 22.7656C19.7623 23.0585 20.2372 23.0585 20.5301 22.7656C20.823 22.4727 20.823 21.9979 20.5301 21.705L19.4694 22.7656ZM17.6719 16.9758C17.6719 18.5949 16.3594 19.9075 14.7403 19.9075V21.4075C17.1878 21.4075 19.1719 19.4233 19.1719 16.9758H17.6719ZM14.7403 19.9075C13.1211 19.9075 11.8086 18.5949 11.8086 16.9758H10.3086C10.3086 19.4233 12.2927 21.4075 14.7403 21.4075V19.9075ZM11.8086 16.9758C11.8086 15.3567 13.1211 14.0441 14.7403 14.0441V12.5441C12.2927 12.5441 10.3086 14.5283 10.3086 16.9758H11.8086ZM14.7403 14.0441C16.3594 14.0441 17.6719 15.3567 17.6719 16.9758H19.1719C19.1719 14.5283 17.1878 12.5441 14.7403 12.5441V14.0441ZM16.8397 20.1359L19.4694 22.7656L20.5301 21.705L17.9003 19.0752L16.8397 20.1359Z" fill="white"/>
</g>
</svg>
